<svg id="Layer_1" data-name="Layer 1" xmlns="http://www.w3.org/2000/svg" viewBox="0 0 200 100"><defs><style>.cls-1{fill:#00326f;}</style></defs><title>_00_ landing page</title><path class="cls-1" d="M34.527,25.256c-5.359,0-8.218.358-9.469.358-2.084,0-3.93-.06-5.777-.06-1.012,0-1.191.06-1.191.477,0,.714.238.775,2.919.775,1.667,0,2.621.536,2.621,5.241v27.4c0,.893-.12,1.012-2.8,1.012-1.31,0-1.668.118-1.668.715s.417.655,1.013.655c1.905,0,3.216-.238,5.717-.238,2.62,0,5.122.595,7.623.595,8.278,0,13.817-3.156,13.817-9.826,0-5.181-3.515-7.206-6.314-8.637-1.191-.6-2.323-.893-2.323-1.012A20.468,20.468,0,0,1,41.139,41.1c1.906-1.31,4.467-3.4,4.467-7.623s-3.335-8.218-11.079-8.218Zm102.042.068a27.526,27.526,0,0,1-6.32,1.14c-.88.052-1.3,0-1.3.621,0,.57.519.674,1.451.674,2.331,0,2.642,0,2.642,3.263V59.563c0,.932-.881.881-3,.881-1.244,0-1.3.312-1.3.674,0,.414.1.518,1.3.518.725,0,3.471-.1,5.232-.1.933,0,2.073.1,2.85.1,1.864,0,2.227,0,2.227-.518,0-.415.1-.726-2.487-.726-.932,0-1.295-.57-1.295-4.869,0-1.5.259-5.594.259-25.331,0-1.554.259-3.419.259-4.041,0-.57-.259-.828-.518-.828Zm-43.005.052a31.758,31.758,0,0,1-7.252,1.139c-.57,0-.674.207-.674.725,0,.363.207.519,2.33.519,1.4,0,1.813.466,1.813,4.144,0,10.93-.156,26.263-.156,27.765,0,.777-.466.777-2.227.777-1.243,0-1.5.259-1.5.674,0,.466.311.518,1.5.518.725,0,2.642-.1,4.4-.1,1.658,0,4.039.1,4.816.1,1.139,0,1.4,0,1.4-.518,0-.415-.207-.674-1.4-.674-3.211,0-3.107,0-3.107-2.434V54.747c0-.466.725-.83,1.554-1.348a9.482,9.482,0,0,1,1.812-1.087c.311,0,2.488,3.264,4.663,5.75s2.642,3.781,3.575,3.781c.725,0,2.279-.052,2.9-.052.466,0,1.139.052,1.761.052,1.139,0,1.5-.1,1.5-.466,0-.414-.414-.674-1.657-.674-1.761,0-3.419-2.538-5.181-4.661-3.626-4.352-4.557-5.335-4.557-5.8,0-.363,3.211-2.641,5.8-5.18,1.605-1.554,3.366-3.781,3.366-4.248,0-.156-.207-.207-.621-.207-.621,0-3.627.155-4.3.155-.622,0-1.605-.155-2.123-.155-.673,0-.932.1-.932.519,0,.466.259.569,1.036.569,2.279,0,2.434.1,2.434.932,0,1.088-.466,1.968-2.486,3.885-1.658,1.555-7.046,6.32-8.341,6.32-.155,0-.207-.156-.207-.363,0-8.443.31-14.244.31-22.118,0-1.658.1-3.834.1-4.507,0-.311-.1-.466-.362-.466ZM32.74,26.685c5.42,0,7.921,5.718,7.921,8.7,0,4.7-1.965,5.836-3.692,7.147a47.917,47.917,0,0,0-6.134-.358c-1.43,0-2.2.119-2.2-.834V28.413c0-1.191.179-1.727,4.109-1.727Zm26.117,13.4c-4.714,0-9.635,4.352-9.635,11.655,0,8.651,6.32,10.723,10.567,10.723a14.673,14.673,0,0,0,8.6-3.523c0-.1-.155-.415-.415-.415a13.84,13.84,0,0,1-5.594,1.244c-3.937,0-9.481-1.917-9.481-9.065,0-1.191.156-1.45.986-1.5a80.422,80.422,0,0,0,12.431-1.813c1.4-.311,2.125-.518,2.125-.725a7.893,7.893,0,0,0-1.711-2.693,11.515,11.515,0,0,0-7.873-3.885Zm60.4,0c-4.713,0-9.635,4.352-9.635,11.655,0,8.651,6.32,10.723,10.567,10.723a14.675,14.675,0,0,0,8.6-3.523c0-.1-.156-.415-.415-.415a13.848,13.848,0,0,1-5.595,1.244c-3.937,0-9.479-1.917-9.479-9.065,0-1.191.156-1.45.984-1.5a80.442,80.442,0,0,0,12.432-1.813c1.4-.311,2.124-.518,2.124-.725a7.889,7.889,0,0,0-1.709-2.693,11.518,11.518,0,0,0-7.874-3.885Zm29.878,0c-4.714,0-9.635,4.352-9.635,11.655,0,8.651,6.32,10.723,10.567,10.723a14.674,14.674,0,0,0,8.6-3.523c0-.1-.156-.415-.415-.415a13.843,13.843,0,0,1-5.595,1.244c-3.936,0-9.479-1.917-9.479-9.065,0-1.191.156-1.45.984-1.5a80.421,80.421,0,0,0,12.432-1.813c1.4-.311,2.124-.518,2.124-.725a7.889,7.889,0,0,0-1.709-2.693,11.516,11.516,0,0,0-7.873-3.885Zm-72.252.362c-.83,0-1.814.259-2.642.259-1.036,0-2.02-.1-3.781-.1-.881,0-.829.156-.829.778,0,.57,0,.518.933.518,2.9,0,2.8.1,2.8,3.626V59.719c0,.725-.155.777-2.279.777-1.244,0-1.3.1-1.3.622s.1.518,1.3.518c.725,0,2.487-.259,4.248-.259,1.658,0,5.128.259,5.853.259,1.347,0,1.4.052,1.4-.518,0-.467-.052-.622-1.4-.622-3.833,0-3.988,0-3.988-2.538V47.286c0-2.175,1.139-3.418,4.143-3.418,2.591,0,3.213,2.124,3.938,2.124.311,0,1.139-2.279,1.139-2.8,0-1.346-2.382-2.487-3.316-2.487-2.434,0-4.868,2.694-5.645,2.694-.207,0-.259-.362-.259-.828,0-.156.1-1.3.1-1.554,0-.415-.207-.57-.415-.57Zm103.431.052c-.725,0-2.124.207-2.9.207-1.4,0-2.332-.1-3.73-.1-.932,0-1.088,0-1.088.674,0,.518.207.519,1.813.519,1.761,0,1.76.31,1.76,1.864,0,.725-1.864,6.113-3.107,9.842-.829,2.435-1.139,3.16-1.5,3.16-.207,0-.829-.88-1.244-1.968-3.107-7.978-4.454-9.791-4.454-11.293,0-1.191.311-1.5,1.554-1.5,1.088,0,1.3-.052,1.3-.518,0-.571-.208-.778-1.3-.778-1.657,0-3.471.155-4.921.155-1.243,0-1.605-.1-3.055-.1-.932,0-1.087.259-1.087.726s.051.518,1.087.518c.932,0,1.295.259,2.59,3.367,2.849,6.734,6.992,16.317,6.992,16.887,0,1.554-4.454,7.666-6.319,10-1.761,2.228-4.2,2.539-4.2,2.85,0,.259.518.518,1.4.518,1.139,0,1.5-.414,3.055-.621,1.14-.156,1.762-.208,2.332-1.347,1.657-3.419,3.989-7.615,7.252-15.54,4.092-9.945,6.372-16.161,7.511-16.161.622,0,1.346-.259,1.346-.725,0-.57-.259-.623-1.087-.623Zm-121.975.674c2.383,0,5.439,3.833,5.439,5.128,0,.311-.051.414-.621.518-3.885.622-6.682,1.3-9.376,1.3-.622,0-.622-.052-.622-.311,0-.726,1.244-6.63,5.18-6.63Zm60.4,0c2.384,0,5.44,3.833,5.44,5.128,0,.311-.052.414-.622.518-3.885.622-6.682,1.3-9.375,1.3-.622,0-.622-.052-.622-.311,0-.726,1.243-6.63,5.179-6.63Zm29.878,0c2.383,0,5.44,3.833,5.44,5.128,0,.311-.052.414-.622.518-3.885.622-6.682,1.3-9.376,1.3-.622,0-.622-.052-.622-.311,0-.726,1.243-6.63,5.18-6.63ZM30.779,43.3c6.491,0,10.9,4.169,10.9,9.529,0,5.181-3.335,8.279-7.86,8.279-1.906,0-3.811-.417-4.467-1.132-.535-.6-.715-3.93-.715-4.467V44.848c0-1.31.477-1.548,2.145-1.548ZM60.311,67.612a2.038,2.038,0,0,0-2.244,1.961c0,2.325,3.063,1.91,3.063,3.2,0,.515-.394.96-1.193.96a3.441,3.441,0,0,1-1.78-.636l-.505.89a3.979,3.979,0,0,0,2.285.769,2.225,2.225,0,0,0,2.426-2.023c0-2.356-3.063-1.647-3.063-3.215,0-.515.344-.889,1.011-.889a3.332,3.332,0,0,1,1.577.465l.435-.87a3.865,3.865,0,0,0-2.012-.617Zm24.419,0c-2.082,0-3.012,1.486-3.012,3.569,0,1.981.92,3.579,3.012,3.579s3.013-1.6,3.013-3.579C87.743,69.1,86.812,67.612,84.73,67.612Zm16.233,0c-2.082,0-3.1,1.5-3.1,3.579,0,2.123.931,3.569,3.064,3.569a3.714,3.714,0,0,0,2.507-1.032l-.617-.788a2.777,2.777,0,0,1-1.83.8c-1.284,0-1.891-.919-1.891-2.557s.648-2.547,1.871-2.547a2.469,2.469,0,0,1,1.678.677l.627-.809a3.48,3.48,0,0,0-2.3-.89Zm26.319,0c-2.083,0-3.012,1.486-3.012,3.569,0,1.981.92,3.579,3.012,3.579s3.013-1.6,3.013-3.579C130.3,69.1,129.365,67.612,127.282,67.612Zm-96.735.1-1.163.122v6.814h1.2V70h.02l2.921,4.65H34.6V67.723H33.4v4.55h-.03l-2.82-4.56Zm15.433,0v6.936h4.206l.091-1.021H47.184V71.666h2.6V70.645h-2.6v-1.91h2.921V67.713H45.981Zm43.31,0v6.936h1.2V71.666h2.548V70.645H90.493v-1.91h2.841V67.713H89.29Zm18.6,0-1.4.112-2.437,6.824h1.123l.575-1.669h2.791l.576,1.669h1.234l-2.458-6.936Zm11.562,0v6.936h1.2V71.666H123.2V70.645h-2.548v-1.91h2.841V67.713h-4.044Zm18.942,0-1.163.122v6.814h1.2V70h.021l2.921,4.65h1.072V67.723h-1.2v4.55h-.031l-2.82-4.56Zm11.592,0-1.405.112-2.437,6.824h1.123l.576-1.669h2.79l.576,1.669h1.234l-2.457-6.936Zm-127.4.01v4.518a2.3,2.3,0,0,0,2.558,2.518,2.3,2.3,0,0,0,2.547-2.528V67.723h-1.2v4.59c0,.86-.363,1.425-1.344,1.425s-1.355-.566-1.355-1.435V67.723h-1.2Zm13.726,0v6.925h1.2V67.723Zm2.385,0,2.386,6.925h1.324l2.4-6.925H43.622L42.3,71.6s-.131.394-.475,1.577h-.061c-.334-1.183-.465-1.587-.465-1.587l-1.325-3.861H38.7Zm13.17,0v6.925h1.2v-2.77h.576c.435,0,.688.405.89.819l.96,1.951h1.325l-1.325-2.5a1.093,1.093,0,0,0-.424-.476v-.019a1.9,1.9,0,0,0,1.3-1.88,2,2,0,0,0-2.285-2.053H51.869Zm11.926,0v6.925H65V67.723Zm2.587,0v1.031h1.83v5.894h1.2v-5.9h1.749l.091-1.021Zm5.66,0,2.184,3.962v2.963h1.2V71.686l2.184-3.962H76.288l-.98,1.972s-.121.252-.465,1.021h-.03c-.364-.769-.5-1.021-.5-1.021l-.92-1.972H72.043Zm39.277,0v6.925h4.094l.091-1.021h-2.982v-5.9Zm5.357,0v6.925h1.2V67.723Zm14.655,0v6.925h1.2v-2.77h.576c.434,0,.688.405.89.819l.96,1.951h1.325l-1.325-2.5a1.093,1.093,0,0,0-.424-.476v-.019a1.9,1.9,0,0,0,1.3-1.88,2,2,0,0,0-2.285-2.053h-2.224Zm12.625,0v6.925h1.2V67.723Zm-59.229.91c1.193,0,1.769,1.041,1.769,2.547s-.586,2.557-1.769,2.557S82.95,72.686,82.95,71.17s.586-2.537,1.779-2.537Zm42.551,0c1.193,0,1.769,1.041,1.769,2.547s-.586,2.557-1.769,2.557S125.5,72.686,125.5,71.17s.586-2.537,1.779-2.537Zm-74.208.121h.991c.819,0,1.082.384,1.082,1.031a.965.965,0,0,1-1.062,1.081H53.072V68.754Zm79.464,0h.991c.819,0,1.082.384,1.082,1.031a.965.965,0,0,1-1.062,1.081h-1.011V68.754Zm-25.42.182h.02c.475,1.435.556,1.658.556,1.658l.536,1.527h-2.194l.536-1.527S106.651,70.372,107.116,68.936Zm42.1,0h.02c.475,1.435.557,1.658.557,1.658l.535,1.527H148.13l.537-1.527S148.747,70.372,149.212,68.936Z"/></svg>