<svg id="Layer_1" data-name="Layer 1" xmlns="http://www.w3.org/2000/svg" viewBox="0 0 200 100"><defs><style>.cls-1{fill:#3b5998;}</style></defs><title>_00_ landing page</title><path class="cls-1" d="M106.666,49.232a8.749,8.749,0,0,0-3.877,1.047V62.232a25.186,25.186,0,0,0,2.792.106c3.8,0,4.316-1.738,4.316-4.165v-5.71C109.9,50.671,109.3,49.232,106.666,49.232ZM81.459,48.58c-2.633,0-3.235,1.446-3.235,3.236v1.006H84.69V51.816C84.69,50.026,84.09,48.58,81.459,48.58ZM32.629,61.022a1.887,1.887,0,0,0,2.143,2.152,7.858,7.858,0,0,0,3.674-1.046V59.293h-3.46C33.348,59.293,32.629,59.6,32.629,61.022Zm98.558-11.79c-2.638,0-3.552,1.44-3.552,3.231V59c0,1.8.914,3.241,3.552,3.241S134.738,60.8,134.738,59V52.463C134.738,50.671,133.817,49.232,131.187,49.232ZM19.7,68.356H11.948V49.587H8.073V43.12h3.875V39.237c0-5.276,2.187-8.414,8.4-8.414h5.175v6.469H22.291c-2.42,0-2.579.9-2.579,2.591L19.7,43.12h5.859l-.686,6.467H19.7Zm26.5.048H39.74l-.28-1.634a14.815,14.815,0,0,1-7.322,1.9c-4.739,0-7.262-3.166-7.262-7.545,0-5.166,2.944-7.01,8.21-7.01h5.36V53c0-2.636-.3-3.411-4.357-3.411h-6.63l.648-6.467h7.247c8.9,0,10.848,2.811,10.848,9.93ZM68.178,50.062a37.018,37.018,0,0,0-7.111-.841c-3.476,0-4.526.767-4.526,3.718v5.583c0,2.952,1.05,3.722,4.526,3.722a36.888,36.888,0,0,0,7.111-.847v6.309a34.3,34.3,0,0,1-7.757,1C52.1,68.7,48.787,64.326,48.787,58V53.471c0-6.33,3.309-10.715,11.634-10.715a34.154,34.154,0,0,1,7.757,1ZM92.444,58H78.225v.521c0,2.952,1.051,3.722,4.526,3.722A45.19,45.19,0,0,0,91.8,61.4v6.309a40.783,40.783,0,0,1-9.687,1c-8.325,0-11.636-4.378-11.636-10.7v-5.18c0-5.533,2.457-10.066,10.988-10.066s10.985,4.48,10.985,10.066Zm25.206.119c0,6.113-1.747,10.571-12.331,10.571a58.5,58.5,0,0,1-10.282-.985V32.765l7.752-1.294V43.694a17.594,17.594,0,0,1,5.817-.938c7.752,0,9.044,3.475,9.044,9.06Zm24.848.133c0,5.273-2.177,10.387-11.286,10.387s-11.331-5.114-11.331-10.387V53.163c0-5.276,2.218-10.391,11.331-10.391S142.5,47.887,142.5,53.163Zm24.831,0c0,5.273-2.18,10.387-11.287,10.387s-11.331-5.114-11.331-10.387V53.163c0-5.276,2.218-10.391,11.331-10.391s11.287,5.115,11.287,10.391Zm25.483,10.1h-8.4L177.3,56.493V68.356H169.55V32.765l7.754-1.294V54.383l7.106-11.263h8.4l-7.758,12.292Zm-36.8-19.124c-2.633,0-3.547,1.44-3.547,3.231V59c0,1.8.914,3.241,3.547,3.241s3.56-1.444,3.56-3.241V52.463C159.577,50.671,158.646,49.232,156.017,49.232Z"/></svg>