<svg id="Layer_1" data-name="Layer 1" xmlns="http://www.w3.org/2000/svg" viewBox="0 0 200 100"><defs><style>.cls-1{fill:#ea4335;}.cls-2{fill:#fbbc05;}.cls-3{fill:#4285f4;}.cls-4{fill:#34a853;}</style></defs><title>_00_ landing page</title><path class="cls-1" d="M88.454,51.089a12.94,12.94,0,1,1-12.94-12.9A12.74,12.74,0,0,1,88.454,51.089Zm-5.664,0c0-4.641-3.367-7.816-7.275-7.816s-7.275,3.175-7.275,7.816c0,4.594,3.367,7.816,7.275,7.816S82.789,55.677,82.789,51.089Z"/><path class="cls-2" d="M116.368,51.089a12.94,12.94,0,1,1-12.94-12.9A12.74,12.74,0,0,1,116.368,51.089Zm-5.664,0c0-4.641-3.367-7.816-7.275-7.816s-7.275,3.175-7.275,7.816c0,4.594,3.367,7.816,7.275,7.816S110.7,55.677,110.7,51.089Z"/><path class="cls-3" d="M143.12,38.969V62.126c0,9.526-5.618,13.417-12.259,13.417a12.283,12.283,0,0,1-11.433-7.6l4.932-2.053a7.125,7.125,0,0,0,6.5,4.577c4.251,0,6.886-2.623,6.886-7.56V61.051h-.2a8.782,8.782,0,0,1-6.793,2.931,12.769,12.769,0,0,1-12.358-12.847c0-7.281,5.909-12.945,12.358-12.945a8.939,8.939,0,0,1,6.793,2.885h.2v-2.1h5.379Zm-4.978,12.166c0-4.542-3.03-7.863-6.886-7.863-3.908,0-7.182,3.321-7.182,7.863,0,4.5,3.274,7.77,7.182,7.77C135.112,58.9,138.142,55.631,138.142,51.135Z"/><path class="cls-4" d="M151.989,25.4V63.2h-5.525V25.4Z"/><path class="cls-1" d="M173.518,55.334l4.4,2.931a12.839,12.839,0,0,1-10.747,5.717,12.62,12.62,0,0,1-12.8-12.9c0-7.671,5.519-12.9,12.166-12.9,6.694,0,9.968,5.327,11.038,8.206l.587,1.466L160.916,55a6.565,6.565,0,0,0,6.252,3.908,7.362,7.362,0,0,0,6.351-3.571Zm-13.533-4.641,11.526-4.786a4.994,4.994,0,0,0-4.786-2.733A7.075,7.075,0,0,0,159.985,50.693Z"/><path class="cls-3" d="M41.662,47.733V42.261H60.1a18.133,18.133,0,0,1,.273,3.3c0,4.106-1.122,9.183-4.74,12.8-3.518,3.664-8.014,5.618-13.969,5.618a20.31,20.31,0,0,1-20.32-20.029,20.31,20.31,0,0,1,20.32-20.029,19.085,19.085,0,0,1,13.725,5.519L51.531,33.3A13.949,13.949,0,0,0,41.662,29.4a14.558,14.558,0,0,0,0,29.113A13.4,13.4,0,0,0,51.775,54.5a11.343,11.343,0,0,0,2.966-6.775Z"/></svg>