<svg id="Layer_1" data-name="Layer 1" xmlns="http://www.w3.org/2000/svg" viewBox="0 0 200 100"><defs><style>.cls-1{fill:#fff;}.cls-2{fill:#c90016;}.cls-3{fill:#ad8b3a;}</style></defs><title>_00_ landing page</title><path id="path16" class="cls-1" d="M120.19,81.986a3.351,3.351,0,0,0-2.857.454,2.157,2.157,0,0,0-.476.389.21.21,0,0,0,.024.251c.195.329.712,1.16,1.181,1.915l.751,1.2c.63,1.013,1.1,1.743,1.217,1.92a2.929,2.929,0,0,0,.541.672c.216.117.651.124,1.28-.269a2.7,2.7,0,0,0,1.4-1.829,4,4,0,0,0-.813-2.8A4.238,4.238,0,0,0,120.19,81.986ZM86.482,85.831l-1.816,2.261c-.026.038-.029.073.006.086l1.607.632c.043.017.064-.012.068-.045l.232-2.9c.007-.046.019-.1-.007-.111S86.507,85.793,86.482,85.831Zm24.765-.537a1.728,1.728,0,0,0-.452.213c-.053.044-.056.092-.025.176l1.176,3.214c.042.115.076.152.149.16a2.057,2.057,0,0,0,.709-.14c.352-.129.451-.214.56-.409a2.178,2.178,0,0,0-.061-1.775C112.754,85.233,111.767,85.1,111.247,85.294Zm-5.83,3.113c-.015-.042-.032-.1-.061-.092s-.038.062-.041.109l-.44,2.866c0,.047.011.077.049.072l1.707-.258c.046-.007.051-.042.037-.073Zm-30.8-13.828a5.358,5.358,0,0,1,1.748-1.245l.056-.022.061,0a1.221,1.221,0,0,0,.509-.082,1.358,1.358,0,0,0-.373-.4c-1.811-1.518-3.028-.2-3.159-.045L69,78.16a2.364,2.364,0,0,1,1.346,1.33l4.272-4.911Zm18.6,11.664a1.765,1.765,0,0,0-.5-.063c-.07.008-.1.049-.116.138l-.725,3.342c-.026.121-.017.169.04.215a2.088,2.088,0,0,0,.673.261.83.83,0,0,0,.692-.045,2.186,2.186,0,0,0,.9-1.533C94.526,87,93.761,86.359,93.22,86.243Zm30.39-13.678c-.771.461-.883.69-.9.74a1.66,1.66,0,0,0,.828.221l.051,0,.046.016a3.976,3.976,0,0,1,1.214.648c.637.5,2.81,2.975,4.492,4.933a2.466,2.466,0,0,1,1.354-1.014l-3.969-5.017a2.727,2.727,0,0,0-3.116-.53Zm13.573,2.081-6.358-6.054c-.088-.092-2.148-2.249-4.033-.629a1.253,1.253,0,0,0-.379.769,1.121,1.121,0,0,0,.305.774,4.164,4.164,0,0,1,.979.832c.435.076,1.2.064,1.078-1.026,0,0,.03-.551-.434-.464,0,0-.717-.4.521-.513,0,0,2.173.761-.543,2.563,0,0-.309.234-1.188-.007-3.371-.531-4.895,1.142-4.98,1.236a2.263,2.263,0,0,0-.85,1.479,1.082,1.082,0,0,0,.009.134,1.327,1.327,0,0,0,.636.863,1.344,1.344,0,0,1,1.022.228c.6.536.849,1.051.731,1.524-.175.712-1.079.958-1.183.983l-.061.015-.064-.006a3.6,3.6,0,0,0-2.228.457c-.183.152-18.558,15.056-40.36-.148a3.381,3.381,0,0,0-2.349-.4l-.053,0-.052-.011a1.575,1.575,0,0,1-1.119-.856,1.37,1.37,0,0,1,.382-1.328c.038-.058.408-.542,1.446-.374a.9.9,0,0,0,.669-.424A.669.669,0,0,0,78.782,74a2.691,2.691,0,0,0-.574-1.369c-.025-.027-2.445-2.653-5.275-1.743a2.231,2.231,0,0,1-.926.164h0c-.04,0-.077,0-.118,0v-.016a2.105,2.105,0,0,1-1.662-1.648s.087-1.014.985-1.058c0,0,.855.2.406.508l-.03-.015s-.637-.158-.391.652a1.119,1.119,0,0,0,.977.882,1.42,1.42,0,0,0,.451-.09l-.007-.02c.016-.006.031,0,.047-.008a.931.931,0,0,0,.342-.244,1.821,1.821,0,0,0,.31-1.137,3.662,3.662,0,0,0-.088-.794c-.768-1.317-2.868-.457-3.086-.364-.091.086-7.866,7.412-7.959,7.5a3.222,3.222,0,0,0-.3,1.387,3.806,3.806,0,0,0,1.863,3.14c.019.011,1.892,1.024,3.04.024l6.142-7.416a2.809,2.809,0,0,1,4.124-.055c.169.128.665.539.665.991a.605.605,0,0,1-.027.181c-.139.441-.677.528-1.106.548a4.619,4.619,0,0,0-1.448,1.046s-6.089,7-6.162,7.083a4.025,4.025,0,0,0-.3,1.516,2.9,2.9,0,0,0,.26,1.233,3.91,3.91,0,0,0,2.753,1.912A8.524,8.524,0,0,1,75.109,88.8c.244.179,24.7,17.65,51.372-1.17a3.706,3.706,0,0,1,2.579-.926,3.7,3.7,0,0,0,2.083-1.784,2.62,2.62,0,0,0,.213-1.059,4.4,4.4,0,0,0-.478-1.855c-.513-.611-1.162-1.375-1.85-2.178l-.022-.006,0-.015c-1.861-2.171-4.012-4.616-4.6-5.077a3.437,3.437,0,0,0-.976-.516c-.358-.024-1.257-.141-1.4-.736a.643.643,0,0,1-.021-.159c0-.532.657-1,1.25-1.352a3.492,3.492,0,0,1,3.969.649l5.439,6.868a2.542,2.542,0,0,0,3.591-.064,4.713,4.713,0,0,0,1.711-2.779,2.584,2.584,0,0,0-.782-1.995ZM79.672,89.533a3.272,3.272,0,0,0,.385.287c.088.054.111.107.082.156-.041.067-.123.057-.219,0-.521-.318-1.009-.654-1.233-.79-.184-.113-.707-.391-1.019-.581-.112-.068-.151-.132-.11-.2.029-.048.079-.057.175,0a1.248,1.248,0,0,0,.312.137c.184.058.352-.128.554-.388.286-.379.748-1.139,1.286-2.023l.514-.846a.06.06,0,0,0-.013-.087l-3.062-1.863c-.024-.015-.054-.02-.083.029l-.515.846c-.538.883-1,1.644-1.212,2.081-.14.284-.22.526,0,.71a3.44,3.44,0,0,0,.385.286c.088.054.111.108.082.155-.041.067-.123.057-.219,0-.521-.316-1.009-.653-1.233-.789-.184-.112-.707-.391-1.028-.586-.1-.063-.143-.126-.1-.193.03-.049.079-.059.175,0a1.3,1.3,0,0,0,.312.137c.184.06.353-.128.555-.387.286-.379.748-1.139,1.285-2.023l1.03-1.692c.889-1.462,1.052-1.731,1.224-2.048.182-.337.212-.53-.011-.758a1.591,1.591,0,0,0-.3-.219c-.088-.054-.125-.1-.084-.17s.109-.053.221.017c.433.263.921.6,1.137.73.193.117.715.4,1.028.586.112.067.157.121.116.189s-.1.058-.2,0a1.375,1.375,0,0,0-.25-.113c-.246-.084-.409.041-.63.368-.2.3-.367.566-1.256,2.028l-.123.2c-.029.049-.016.083.007.1L80.7,84.681c.023.013.059.01.089-.038l.123-.2c.889-1.461,1.053-1.731,1.223-2.049.183-.336.213-.53-.011-.758a1.61,1.61,0,0,0-.3-.219c-.088-.053-.124-.1-.083-.169s.109-.052.221.016c.433.264.92.6,1.137.731.192.118.715.4,1.028.587.112.068.157.121.116.189s-.1.057-.2,0a1.425,1.425,0,0,0-.25-.113c-.245-.083-.409.041-.63.368-.2.3-.367.568-1.256,2.029l-1.029,1.692c-.538.885-1,1.644-1.211,2.082-.14.285-.22.525,0,.71ZM88.1,93.168c-.033.084-.12.073-.443-.053s-.952-.375-1.642-.67c-.153-.072-.258-.113-.229-.186s.068-.071.159-.047a.2.2,0,0,0,.173-.21l.174-2.5a.094.094,0,0,0-.058-.108l-1.948-.765c-.043-.017-.069,0-.111.053L83.119,90a2.533,2.533,0,0,0-.382.588c-.074.189-.049.355.222.461l.131.051c.1.041.122.073.1.136-.033.083-.093.084-.19.046-.279-.109-.642-.289-.913-.4-.1-.037-.588-.195-1.043-.374-.114-.045-.158-.086-.125-.17.025-.062.068-.071.138-.042a2.645,2.645,0,0,0,.279.086c.427.1.732-.2,1.113-.652l4.779-5.714c.224-.262.322-.357.409-.321s.094.145.086.42c-.017.659-.3,5.481-.367,7.292-.039,1.072.157,1.319.32,1.443a1.711,1.711,0,0,0,.351.186c.069.029.109.055.08.129Zm8.108,1.772c-.019.087-.088.095-.2.072l-.871-.189a1.647,1.647,0,0,1-.936-.422,5.147,5.147,0,0,1-.906-1.889c-.236-.684-.5-1.525-.579-1.714a.178.178,0,0,0-.148-.112l-.793-.2c-.046-.01-.078.006-.093.072l-.034.154c-.222,1.022-.41,1.891-.464,2.363-.042.326-.039.579.227.683a3.579,3.579,0,0,0,.44.141c.073.016.1.057.091.112-.017.077-.088.1-.207.07-.532-.115-1.2-.3-1.341-.324-.174-.038-.759-.13-1.126-.21-.119-.026-.176-.074-.159-.149.012-.056.056-.08.165-.058a1.287,1.287,0,0,0,.34.028c.193,0,.291-.236.4-.547.146-.452.334-1.321.554-2.332l.42-1.936c.363-1.672.429-1.98.487-2.335.063-.377.028-.57-.258-.713a1.6,1.6,0,0,0-.35-.11c-.1-.022-.151-.055-.134-.133s.086-.086.223-.056c.486.106,1.057.264,1.249.305.312.068,1.016.186,1.3.249a2.606,2.606,0,0,1,1.586.839,2.089,2.089,0,0,1,.3,1.642,3.344,3.344,0,0,1-1.745,2.2c.549,1.408.969,2.524,1.362,3.323a1.816,1.816,0,0,0,.865.971,1.247,1.247,0,0,0,.25.088C96.194,94.844,96.224,94.884,96.212,94.94Zm5.068-3.931c-.653,1.622-1.133,2.834-1.358,3.39-.265.645-.326.822-.458.819s-.173-.163-.334-.7l-2.142-6.948c-.2-.626-.352-.755-.685-.878a1.253,1.253,0,0,0-.365-.057c-.084,0-.111-.037-.109-.1,0-.09.106-.1.247-.093.5.016,1.031.067,1.359.077.235.008.686-.011,1.155,0,.113,0,.215.03.213.109s-.059.1-.144.1a.57.57,0,0,0-.368.066.291.291,0,0,0-.1.233,3.853,3.853,0,0,0,.188.873l1.448,5.158.038,0c.443-1.225,1.778-4.807,2.028-5.543a1.643,1.643,0,0,0,.1-.413.217.217,0,0,0-.115-.217,1.039,1.039,0,0,0-.374-.069c-.084,0-.159-.016-.156-.1s.088-.11.266-.1c.469.015.862.061.985.065.159.006.6-.015.882-.005.122,0,.2.029.193.107s-.058.1-.153.1a.7.7,0,0,0-.463.121c-.125.1-.273.284-.548,1-.4,1.046-.673,1.644-1.225,3.011Zm8.7,3.127c-.334.051-1.012.154-1.757.243-.168.014-.279.032-.291-.048s.024-.093.115-.119a.2.2,0,0,0,.045-.269L107,91.7c-.027-.052-.058-.071-.1-.064l-2.069.313c-.046.008-.062.032-.071.1l-.261,1.667a2.585,2.585,0,0,0-.037.7c.03.2.136.333.424.289l.138-.021c.111-.017.142,0,.154.068.012.088-.039.119-.141.134-.3.045-.7.072-.988.115-.1.015-.608.127-1.09.2-.121.019-.181,0-.193-.084-.011-.067.023-.095.1-.106a2.423,2.423,0,0,0,.284-.065c.417-.132.536-.537.638-1.122l1.275-7.338c.062-.339.1-.471.193-.485s.154.079.285.32c.315.579,2.485,4.895,3.333,6.5.5.947.8,1.063,1,1.089a1.672,1.672,0,0,0,.4-.014c.073-.011.122-.006.133.071s-.067.123-.41.175Zm8.316-2.929-.836.307a1.645,1.645,0,0,1-1.017.144,5.143,5.143,0,0,1-1.776-1.111c-.565-.452-1.234-1.023-1.407-1.139a.182.182,0,0,0-.186-.016l-.774.259c-.045.016-.062.048-.039.111l.054.148c.36.982.665,1.816.872,2.244.138.3.277.51.557.456a3.473,3.473,0,0,0,.446-.117c.071-.026.118-.007.137.046.027.075-.023.129-.137.171-.512.186-1.175.393-1.307.443-.167.061-.712.3-1.063.425-.115.042-.189.032-.216-.041-.019-.053.005-.1.11-.138a1.253,1.253,0,0,0,.3-.157c.161-.108.12-.356.042-.675-.118-.46-.424-1.3-.78-2.267l-.681-1.86c-.588-1.606-.7-1.9-.838-2.233-.149-.353-.281-.5-.6-.464a1.6,1.6,0,0,0-.355.094c-.1.036-.157.034-.184-.04s.027-.118.159-.166c.467-.171,1.033-.344,1.219-.41.3-.11.957-.387,1.23-.487a2.612,2.612,0,0,1,1.788-.14,2.1,2.1,0,0,1,1.13,1.229,3.341,3.341,0,0,1-.3,2.792c1.217.9,2.171,1.614,2.93,2.079a1.812,1.812,0,0,0,1.25.358,1.227,1.227,0,0,0,.258-.059c.071-.026.118-.007.137.046.031.084-.023.129-.129.166Zm5.831-5.047a3.92,3.92,0,0,1-1.966,2.79c-.286.179-.631.353-.952.514s-.616.305-.816.429c-.088.054-.264.164-.448.293-.183.114-.379.262-.537.361-.1.064-.178.07-.218,0-.03-.048-.016-.1.08-.157a1.294,1.294,0,0,0,.262-.217c.136-.138.045-.372-.1-.669-.211-.425-.68-1.18-1.227-2.059l-1.048-1.68c-.9-1.453-1.071-1.721-1.278-2.015-.217-.315-.377-.428-.682-.331a1.635,1.635,0,0,0-.329.164c-.087.055-.146.065-.189,0s0-.121.122-.195c.422-.263.941-.547,1.165-.686.246-.154.73-.495,1.208-.793,1-.62,2.326-1.449,3.872-.9a4.474,4.474,0,0,1,2.283,1.944,4.963,4.963,0,0,1,.793,3.205Z"/><g id="g18"><path id="path323" d="M80.7,84.681c.023.013.059.01.089-.038l.123-.2c.889-1.461,1.053-1.731,1.223-2.049.183-.336.213-.53-.011-.758a1.61,1.61,0,0,0-.3-.219c-.088-.053-.124-.1-.083-.169s.109-.052.221.016c.433.264.92.6,1.137.731.192.118.715.4,1.028.587.112.068.157.121.116.189s-.1.057-.2,0a1.425,1.425,0,0,0-.25-.113c-.245-.083-.409.041-.63.368-.2.3-.367.568-1.256,2.029l-1.029,1.692c-.538.885-1,1.644-1.211,2.082-.14.285-.22.525,0,.71a3.272,3.272,0,0,0,.385.287c.088.054.111.107.082.156-.041.067-.123.057-.219,0-.521-.318-1.009-.654-1.233-.79-.184-.113-.707-.391-1.019-.581-.112-.068-.151-.132-.11-.2.029-.048.079-.057.175,0a1.248,1.248,0,0,0,.312.137c.184.058.352-.128.554-.388.286-.379.748-1.139,1.286-2.023l.514-.846a.06.06,0,0,0-.013-.087l-3.062-1.863c-.024-.015-.054-.02-.083.029l-.515.846c-.538.883-1,1.644-1.212,2.081-.14.284-.22.526,0,.71a3.44,3.44,0,0,0,.385.286c.088.054.111.108.082.155-.041.067-.123.057-.219,0-.521-.316-1.009-.653-1.233-.789-.184-.112-.707-.391-1.028-.586-.1-.063-.143-.126-.1-.193.03-.049.079-.059.175,0a1.3,1.3,0,0,0,.312.137c.184.06.353-.128.555-.387.286-.379.748-1.139,1.285-2.023l1.03-1.692c.889-1.462,1.052-1.731,1.224-2.048.182-.337.212-.53-.011-.758a1.591,1.591,0,0,0-.3-.219c-.088-.054-.125-.1-.084-.17s.109-.053.221.017c.433.263.921.6,1.137.73.193.117.715.4,1.028.586.112.067.157.121.116.189s-.1.058-.2,0a1.375,1.375,0,0,0-.25-.113c-.246-.084-.409.041-.63.368-.2.3-.367.566-1.256,2.028l-.123.2c-.029.049-.016.083.007.1L80.7,84.681Z"/><path id="path21" d="M84.291,88.633c-.043-.017-.069,0-.111.053L83.119,90a2.533,2.533,0,0,0-.382.588c-.074.189-.049.355.222.461l.131.051c.1.041.122.073.1.136-.033.083-.093.084-.19.046-.279-.109-.642-.289-.913-.4-.1-.037-.588-.195-1.043-.374-.114-.045-.158-.086-.125-.17.025-.062.068-.071.138-.042a2.645,2.645,0,0,0,.279.086c.427.1.732-.2,1.113-.652l4.779-5.714c.224-.262.322-.357.409-.321s.094.145.086.42c-.017.659-.3,5.481-.367,7.292-.039,1.072.157,1.319.32,1.443a1.712,1.712,0,0,0,.351.186c.069.029.109.055.08.129s-.12.073-.443-.053-.952-.375-1.642-.67c-.153-.072-.258-.113-.229-.186s.068-.071.159-.047a.2.2,0,0,0,.173-.21l.174-2.5a.094.094,0,0,0-.058-.108l-1.948-.765m1.988.177c.043.017.064-.012.068-.045l.232-2.9c.007-.046.019-.1-.007-.111s-.064.035-.09.073l-1.816,2.261c-.026.038-.029.073.006.086Z"/><path id="path23" d="M90.99,88.556c.363-1.672.429-1.98.487-2.335.063-.377.028-.57-.258-.713a1.6,1.6,0,0,0-.35-.11c-.1-.022-.151-.055-.134-.133s.086-.086.223-.056c.486.106,1.057.264,1.249.305.312.068,1.016.186,1.3.249a2.606,2.606,0,0,1,1.586.839,2.089,2.089,0,0,1,.3,1.642,3.344,3.344,0,0,1-1.745,2.2c.549,1.408.969,2.524,1.362,3.323a1.816,1.816,0,0,0,.865.971,1.247,1.247,0,0,0,.25.088c.073.016.1.057.091.113-.019.087-.088.095-.2.072l-.871-.189a1.647,1.647,0,0,1-.936-.422,5.147,5.147,0,0,1-.906-1.889c-.236-.684-.5-1.525-.579-1.714a.178.178,0,0,0-.148-.112l-.793-.2c-.046-.01-.078.006-.093.072l-.034.154c-.222,1.022-.41,1.891-.464,2.363-.042.326-.039.579.227.683a3.579,3.579,0,0,0,.44.141c.073.016.1.057.091.112-.017.077-.088.1-.207.07-.532-.115-1.2-.3-1.341-.324-.174-.038-.759-.13-1.126-.21-.119-.026-.176-.074-.159-.149.012-.056.056-.08.165-.058a1.287,1.287,0,0,0,.34.028c.193,0,.291-.236.4-.547.146-.452.334-1.321.554-2.332l.42-1.936m.893,1.1c-.026.121-.017.169.04.215a2.088,2.088,0,0,0,.673.261.83.83,0,0,0,.692-.045,2.186,2.186,0,0,0,.9-1.533c.339-1.561-.426-2.2-.967-2.316a1.765,1.765,0,0,0-.5-.063c-.07.008-.1.049-.116.138Z"/><path id="path329" d="M96.988,87.573c-.2-.626-.352-.755-.685-.878a1.253,1.253,0,0,0-.365-.057c-.084,0-.111-.037-.109-.1,0-.09.106-.1.247-.093.5.016,1.031.067,1.359.077.235.008.686-.011,1.155,0,.113,0,.215.03.213.109s-.059.1-.144.1a.57.57,0,0,0-.368.066.291.291,0,0,0-.1.233,3.853,3.853,0,0,0,.188.873l1.448,5.158.038,0c.443-1.225,1.778-4.807,2.028-5.543a1.643,1.643,0,0,0,.1-.413.217.217,0,0,0-.115-.217,1.039,1.039,0,0,0-.374-.069c-.084,0-.159-.016-.156-.1s.088-.11.266-.1c.469.015.862.061.985.065.159.006.6-.015.882-.005.122,0,.2.029.193.107s-.058.1-.153.1a.7.7,0,0,0-.463.121c-.125.1-.273.284-.548,1-.4,1.046-.673,1.644-1.225,3.011-.653,1.622-1.133,2.834-1.358,3.39-.265.645-.326.822-.458.819s-.173-.163-.334-.7Z"/><path id="path26" d="M104.822,91.945c-.046.008-.062.032-.071.1l-.261,1.667a2.585,2.585,0,0,0-.037.7c.03.2.136.333.424.289l.138-.021c.111-.017.142,0,.154.068.012.088-.039.119-.141.134-.3.045-.7.072-.988.115-.1.015-.608.127-1.09.2-.121.019-.181,0-.193-.084-.011-.067.023-.095.1-.106a2.423,2.423,0,0,0,.284-.065c.417-.132.536-.537.638-1.122l1.275-7.338c.062-.339.1-.471.193-.485s.154.079.285.32c.315.579,2.485,4.895,3.333,6.5.5.947.8,1.063,1,1.089a1.672,1.672,0,0,0,.4-.014c.073-.011.122-.006.133.071s-.067.123-.41.175-1.012.154-1.757.243c-.168.014-.279.032-.291-.048s.024-.093.115-.119a.2.2,0,0,0,.045-.269L107,91.7c-.027-.052-.058-.071-.1-.064l-2.069.313m1.809-.842c.046-.007.051-.042.037-.073l-1.251-2.623c-.015-.042-.032-.1-.061-.092s-.038.062-.041.109l-.44,2.866c0,.047.011.077.049.072Z"/><path id="path28" d="M110.6,88.442c-.588-1.606-.7-1.9-.838-2.233-.149-.353-.281-.5-.6-.464a1.6,1.6,0,0,0-.355.094c-.1.036-.157.034-.184-.04s.027-.118.159-.166c.467-.171,1.033-.344,1.219-.41.3-.11.957-.387,1.23-.487a2.612,2.612,0,0,1,1.788-.14,2.1,2.1,0,0,1,1.13,1.229,3.341,3.341,0,0,1-.3,2.792c1.217.9,2.171,1.614,2.93,2.079a1.812,1.812,0,0,0,1.25.358,1.227,1.227,0,0,0,.258-.059c.071-.026.118-.007.137.046.031.084-.023.129-.129.166l-.836.307a1.645,1.645,0,0,1-1.017.144,5.143,5.143,0,0,1-1.776-1.111c-.565-.452-1.234-1.023-1.407-1.139a.182.182,0,0,0-.186-.016l-.774.259c-.045.016-.062.048-.039.111l.054.148c.36.982.665,1.816.872,2.244.138.3.277.51.557.456a3.473,3.473,0,0,0,.446-.117c.071-.026.118-.007.137.046.027.075-.023.129-.137.171-.512.186-1.175.393-1.307.443-.167.061-.712.3-1.063.425-.115.042-.189.032-.216-.041-.019-.053.005-.1.11-.138a1.253,1.253,0,0,0,.3-.157c.161-.108.12-.356.042-.675-.118-.46-.424-1.3-.78-2.267l-.681-1.86m1.345.455c.042.115.076.152.149.16a2.057,2.057,0,0,0,.709-.14c.352-.129.451-.214.56-.409a2.178,2.178,0,0,0-.061-1.775c-.548-1.5-1.536-1.631-2.056-1.44a1.728,1.728,0,0,0-.452.213c-.053.044-.056.092-.025.176Z"/><path id="path30" d="M117.162,85.769c-.9-1.453-1.071-1.721-1.278-2.015-.217-.315-.377-.428-.682-.331a1.635,1.635,0,0,0-.329.164c-.087.055-.146.065-.189,0s0-.121.122-.195c.422-.263.941-.547,1.165-.686.246-.154.73-.495,1.208-.793,1-.62,2.326-1.449,3.872-.9a4.474,4.474,0,0,1,2.283,1.944,4.963,4.963,0,0,1,.793,3.205,3.92,3.92,0,0,1-1.966,2.79c-.286.179-.631.353-.952.514s-.616.305-.816.429c-.088.054-.264.164-.448.293-.183.114-.379.262-.537.361-.1.064-.178.07-.218,0-.03-.048-.016-.1.08-.157a1.294,1.294,0,0,0,.262-.217c.136-.138.045-.372-.1-.669-.211-.425-.68-1.18-1.227-2.059l-1.048-1.68m1.651.429c.63,1.013,1.1,1.743,1.217,1.92a2.929,2.929,0,0,0,.541.672c.216.117.651.124,1.28-.269a2.7,2.7,0,0,0,1.4-1.829,4,4,0,0,0-.813-2.8,4.238,4.238,0,0,0-2.252-1.91,3.351,3.351,0,0,0-2.857.454,2.157,2.157,0,0,0-.476.389.21.21,0,0,0,.024.251c.195.329.712,1.16,1.181,1.915Z"/></g><path id="path42" d="M93.233,21.737c-.318-.007-.586.372-.882.519-1.551.712-3.147.155-4.89.389l-1.31.441c-.357-.04-.629-.285-.986-.324a23.959,23.959,0,0,0-3.736-.039,5.862,5.862,0,0,1-2.659-.83c-.512-.04-.474.682-.947.713a4.993,4.993,0,0,1-1.077.039,1.112,1.112,0,0,0-1.077.558l-.117,2.335a.439.439,0,0,1-.272.4c-.915.04-1.993-.092-2.348.908-.078.435-.2.987.117,1.349a2.6,2.6,0,0,0,2.024.519c.518.078.4.668.4,1.025.085,1.984-.156,3.891,0,5.993-.234,1.031-1.545.084-2.14.713a1.671,1.671,0,0,0-.4,1.116,1.13,1.13,0,0,0,.713,1.271c.6.233,1.278.045,1.829.363.279.913-.194,2.174.4,3.048a1.874,1.874,0,0,0,1.1.4,15.312,15.312,0,0,0,3.58-.078,29.714,29.714,0,0,1,3.723.039c.317.123.759.078.882.48a1.912,1.912,0,0,0,1.946.272c.357-.317.59-.753,1.025-.869l1.985.078a3.377,3.377,0,0,1,1.777-.078c1.031.038,2.07.038,3.061,0a3.366,3.366,0,0,0,1.5-.441c.6-1.076-.208-2.341.428-3.373.636-.156,1.35.195,1.868-.285a1.506,1.506,0,0,0,.532-1.427,2,2,0,0,0-2.114-.908c-.357-.078-.43-.473-.506-.752-.085-1.783.027-3.379.065-5.123.2-.558-.155-1.071.246-1.544.589-.435,1.466-.039,1.946-.713.032-.442.239-1.161-.195-1.518a1.989,1.989,0,0,0-1.557-.389c-1.147-.837.04-2.031-.636-3.061a2.158,2.158,0,0,0-1.946-.35,1.672,1.672,0,0,1-1.025-.713A.512.512,0,0,0,93.233,21.737Zm-.571,1.155a.326.326,0,0,1,.311.389c.116.752-.122,1.5-.039,2.374,0,1.628.149,3.133,0,4.721,0,2.419-.039,4.535.039,6.875-.033.473.122,1.186-.389,1.5l-.96.233a30.758,30.758,0,0,0-5.072.169c-.636-.239-.078-1-.156-1.557-.163-3.217-.17-6.577-.13-9.754a12.6,12.6,0,0,0,.039-2.75c.163-.558.091-1.337.765-1.531a12.343,12.343,0,0,1,2.452-.13A5.355,5.355,0,0,0,92.662,22.892ZM79.573,23.1c.274.01.532.2.83.233a8.529,8.529,0,0,0,2.815.195c.234.078.435-.079.636-.117a2.348,2.348,0,0,1,1.466.35l.272.6c.038,2.263.154,4.358,0,6.745v.752l-.078,3.84a30.7,30.7,0,0,0,.156,3.295c-.04.125-.111.285-.233.285a20.162,20.162,0,0,0-4.125-.363c-.674.077-1.583.161-2.063-.35-.272-.279.046-.6-.117-.882.116-2.178-.038-4.721-.078-6.823.078-1.627-.039-3.133.117-4.722-.118-.713.046-1.577-.039-2.335a.55.55,0,0,1,.156-.636A.585.585,0,0,1,79.573,23.1Zm15.709.208a.463.463,0,0,1,.558.337c.31.908-.012,1.861.221,2.776.6.513,1.674-.123,2.153.636a.529.529,0,0,1-.4.6c-.513.239-1.355-.2-1.673.4-.234,1.666-.038,3.081-.233,4.747a26.291,26.291,0,0,0,.156,3.5c.558,1.031,2.231-.208,2.387,1.142-.473.991-1.945-.15-2.465.843-.078.953-.123,2.016-.195,2.971-.078.233-.312.286-.506.4L91,41.74c-.837-.156-1.706.24-2.543-.039-.2.156-.433,0-.636-.039a.455.455,0,0,1-.039-.324,4.527,4.527,0,0,1,1.946-.195l2.776-.078c.875.038,2.1.279,2.568-.636.319-2.024-.026-4.092.13-6.2.045-2.5.039-4.76.039-7.342a18.818,18.818,0,0,0-.285-3.321.388.388,0,0,1,.324-.259Zm-1.44.078c.323-.014.469.379.571.584a1.354,1.354,0,0,1,.182.934c.118,3.294,0,6.706,0,10v4.138c0,.156-.064.272-.182.272-.511-.24-.636-.8-.83-1.271.04-2.1.039-3.969.039-6.07.038-2.5-.077-5.162.039-7.705a1.283,1.283,0,0,1,.039-.856A.417.417,0,0,1,93.843,23.385Zm-17.1.143c.868,0,0,.786.156,1.219l-.078,2.076c-.038,3.332.117,6.732-.039,9.949.038,1.31.156,2.427.195,3.7.118.674.83.559,1.271.675,1.031-.116,2.094.124,3.087.039a21.129,21.129,0,0,1,3.139,0c.116.038.272.117.272.272.045.239-.188.364-.389.4-2.5-.078-5.086.04-7.5-.078a.811.811,0,0,1-.558-.519c-.123-.915.007-1.985-.156-2.854-.674-.518-1.828.116-2.348-.675a.5.5,0,0,1,.13-.6c.551-.433,1.349-.083,1.985-.324l.195-.195c.279-2.581-.046-5.079.195-7.575-.163-.355-.084-.837-.519-1.038a5.227,5.227,0,0,0-1.349.039c-.319-.156-.713-.11-.869-.467a.733.733,0,0,1,.48-.726c.634-.4,1.822.291,2.063-.739C76.467,25.31,75.954,24.123,76.745,23.527Zm1.466.039c.2-.038.2.155.233.233a.481.481,0,0,0-.026.6c.111,1.232-.2,2.568,0,3.762-.083,1.7,0,3.34,0,5.085-.083,1.31-.052,2.932-.052,4.242.116.877.116,1.868-.675,2.348-.319-.038-.155-.395-.233-.558.078-.79-.045-1.55,0-2.387.156-2.3-.124-4.675.039-7.017V24.747C77.614,24.313,77.731,23.769,78.211,23.566Zm2.581,4.008c-.4.161-1.147-.117-1.193.441,0,.227.279.265.4.428a13.6,13.6,0,0,1,1.31,3.126,10.037,10.037,0,0,0,.558,1.6c.116.636.233,1.383.869,1.621.239,0,.351-.194.467-.35.636-1.944,1.037-4.009,1.673-5.915.085-.156.31-.326.233-.558a1.134,1.134,0,0,0-.947-.272c-.194.084-.481.157-.441.467.712.953-.072,2.146-.195,3.139-.156.44-.078,1.154-.636,1.232a3.543,3.543,0,0,1-.558-1.349,13.722,13.722,0,0,1-.752-2.27c0-.357.287-.539.363-.856C81.831,27.541,81.188,27.613,80.793,27.575Zm9.366,0a21.928,21.928,0,0,0-2.815.233c-.31.395.325.623.441,1.025.038,1.589,0,3.133-.039,4.8,0,.442-.72.875-.169,1.193.837.038,1.627.118,2.426.156.473.04,1.025.091,1.3-.389.163-.279.369-.643.169-.96,0-.194-.248-.389-.4-.311-.234.355-.3.754-.739.908-.48,0-1.2.285-1.518-.195-.038-.868-.395-2.1.117-2.776.636-.433,1.122.791,1.557.039a1.085,1.085,0,0,0-.117-1.077c-.48.04-.713.68-1.271.441-.6-.357-.286-1.278-.324-1.868a.684.684,0,0,1,.713-.506c.52-.038.753.544,1.193.7.266-.078.265-.39.233-.584C90.632,28.126,90.677,27.535,90.158,27.575Zm3.256,11.661c.42.051.514.6.791.882.078.156-.11.35-.272.35H91.508c-.953.033-1.705.078-2.7.078-.674-.123-1.46.4-1.855-.311-.123-.234.155-.4.311-.48.556-.232,1.071.163,1.66,0,1.394-.076,3.017.09,4.281-.506A.685.685,0,0,1,93.414,39.236Zm-14.529.117c.317-.038.518.17.752.285,1.582.272,3.372,0,4.916.156.239.078.559.11.636.389,0,.163,0,.4-.233.441-1.946-.357-3.963.085-5.9-.156-.239-.038-.766.109-.8-.246A1.052,1.052,0,0,1,78.886,39.353Zm7.381,1.323a1.352,1.352,0,0,1,.869.869c-.032.4-.026.94-.467,1.1a.747.747,0,0,1-.752-.078c-.435-.2-.286-.63-.324-1.025A.926.926,0,0,1,86.267,40.676ZM121.3,21.867a.818.818,0,0,0-.143.039c-1.821,1.419-4.443.317-6.59.83-.241.038-.4.318-.713.233-1.667-.908-3.692-.08-5.435-.506-.759-.047-1.441-.765-2.153-.363-.319,1.1-1.622.227-2.374.506-1.31.551-.435,1.979-.675,3.048-.442.837-1.557.052-2.153.726a1.4,1.4,0,0,0-.467,1.064c.078,1.544,1.946.675,2.7,1.466-.194.953.116,1.952-.078,2.789-.116,1.388.239,2.738.078,4.047-.676.714-2.14-.045-2.5,1.1-.312.48-.006.992.233,1.427a2.614,2.614,0,0,0,1.907.48c.674.636.286,1.627.324,2.5.078.31-.084.629.195.908a8.265,8.265,0,0,0,2.62.285c1.944,0,3.691,0,5.474.078.915-.239,1.471.714,2.348.752.83.118.953-1.033,1.79-.83l4.047.039a23.072,23.072,0,0,1,2.335.078c.785-.163,1.738.154,2.218-.48a16.86,16.86,0,0,0,.272-2.815c.241-.8,1.31-.28,1.868-.636a1.271,1.271,0,0,0,.791-.986c.161-.6-.233-1.038-.6-1.44-.473-.272-.985-.117-1.5-.233a.732.732,0,0,1-.467-.675,20.608,20.608,0,0,1,.078-3.528,12.941,12.941,0,0,1,0-2.789l.156-.233c.636-.161,1.388.084,1.868-.389a1.445,1.445,0,0,0,.272-1.518c-.241-.953-1.31-.707-2.024-.83-.674-.317-.31-1.032-.35-1.583,0-.52.228-1.238-.363-1.634a3.516,3.516,0,0,0-1.66-.065c-.741.182-.649-.929-1.323-.869Zm-14.2,1.064a3.178,3.178,0,0,1,1.349.324,16.1,16.1,0,0,0,3.619,0c.357.078.863-.045,1.064.389a8.357,8.357,0,0,1,.195,3.295c.083,2.3-.156,4.677,0,6.94,0,.63-.077,1.193-.039,1.829-.116,1.071-.038,2.024-.078,3.178-.239.195-.6.038-.83,0a20.894,20.894,0,0,0-2.3-.039,3.053,3.053,0,0,0-1.038.078c-.707-.154-1.628.039-2.179-.519a3.2,3.2,0,0,1,0-1.5c.038-2.939-.241-5.766-.039-8.743V24.046C106.827,23.689,106.743,23.131,107.1,22.931Zm13.582,0c.2,0,.233.194.233.35-.156,2.736.156,5.592-.078,8.25.111,2.218-.079,4.613-.039,6.914-.241.475-.948.467-1.5.467-1.388.155-2.815-.156-4.125,0-.435-.04-.915.559-1.232.117.038-1.109.156-2.1.195-3.165-.163-4.17-.037-7.622.039-11.752a.944.944,0,0,1,.713-.675C116.791,23.249,118.932,23.721,120.682,22.931Zm-16.15.324a.666.666,0,0,1,.428.078l.117.117a3.925,3.925,0,0,0-.428,2.024c-.038,1.945-.039,3.716-.039,5.578.078,2.783-.118,6.234.078,9.132.038.319.273.48.545.636,2.223.2,4.4-.031,6.668.208.163.078.363.078.441.272.045.2-.156.279-.272.363-1.946.078-3.931-.084-5.876.039-.714-.161-1.823.272-2.14-.558-.078-.712,0-1.433-.078-2.153a1.335,1.335,0,0,0-.6-.869c-.636-.2-1.661.195-1.933-.636a.543.543,0,0,1,.428-.6c.6-.156,1.5.079,1.855-.6a34.659,34.659,0,0,0,.208-4.994c-.118-.83.039-1.784-.039-2.7-.317-.993-1.473-.6-2.231-.791a.562.562,0,0,1-.272-.791c.721-.676,2.3.072,2.5-1.155a8.386,8.386,0,0,1,.246-2.452A.916.916,0,0,1,104.531,23.255Zm18.654.156a.861.861,0,0,1,.752.272c.435.953-.512,2.664.908,2.984.52.156,1.3-.169,1.544.467a.686.686,0,0,1-.039.558c-.674.674-2.134-.279-2.335.908a10.733,10.733,0,0,1,0,1.946v2.776a7.7,7.7,0,0,0,.156,3.1l.311.233c.676.156,1.55-.11,2.024.441.045.279-.032.636-.311.713-.674.44-1.861-.356-2.218.6A23.547,23.547,0,0,1,123.7,41.3l-.363.324c-2.024.155-3.97,0-5.954.039l-1.946-.039a.275.275,0,0,1-.117-.363c.837-.558,2.031-.118,3.022-.195,1.35.038,2.737,0,4.125-.039.953-.435.4-1.472.636-2.309.078-2.3.039-4.6.117-6.9-.04-2.379-.077-4.689-.039-6.992C123.225,24.313,122.549,23.683,123.185,23.411Zm-1.284.065c.306.043.349.449.519.688l.156.467c.078,2.5.037,5.072-.039,7.692-.078,1.27.077,2.381.039,3.7-.188,1.071.116,2.186-.078,3.217a.279.279,0,0,1-.428-.039,1.655,1.655,0,0,1-.558-1.5c0-3.256,0-6.363.039-9.534.156-1.473-.078-2.77,0-4.268.038-.163,0-.358.195-.4A.528.528,0,0,1,121.9,23.476Zm-16.072.195c.039,0,.08.034.13.1a4.986,4.986,0,0,1,.156,1.531c-.116,1.3.155,2.66-.039,4.008.038,3.061,0,6.188-.039,9.365-.2.279-.2.713-.6.791-.234.038-.194-.227-.233-.35.156-.915-.124-1.745.039-2.62-.125-3.451,0-6.558-.039-9.806.078-1-.163-1.822.272-2.7C105.629,23.907,105.713,23.669,105.829,23.67Zm2.5,3.827a.419.419,0,0,0-.311.363c0,.239.272.272.428.428a3.122,3.122,0,0,1,.246,1.7c-.04,1.348-.077,2.5-.039,3.775-.078.4-.759.589-.4,1.064l1.6.039c.83-.317-.286-.752-.208-1.232a3.858,3.858,0,0,1,.13-1.66.291.291,0,0,1,.35.078,24.78,24.78,0,0,0,1.349,2.218,1,1,0,0,0,.908.558c.156-.078.4-.194.311-.428-.745-.6-.895-1.517-1.531-2.231-.123-.239-.038-.395,0-.635a3.821,3.821,0,0,0,1.3-1.466,3.868,3.868,0,0,0-.078-1.349,2.181,2.181,0,0,0-1.7-1.219C109.888,27.457,109.129,27.575,108.332,27.5Zm9.132,0c-.473.154-1.109-.125-1.544.195-.161.35.156.63.272.947a37.575,37.575,0,0,1-.039,5.2c-.078.279-.479.435-.519.713-.078.116.078.273.195.311a11.849,11.849,0,0,1,1.673.039c.714-.319-.117-.746-.156-1.142.038-1.79-.117-3.38.039-5.085.156-.319.545-.557.467-.947C117.822,27.536,117.627,27.535,117.464,27.5Zm-7.135.623a1.116,1.116,0,0,1,1.064.921,1.5,1.5,0,0,1-.078,1.349,1.37,1.37,0,0,1-1.116.675c-.953-.123-.357-1.273-.48-1.829.045-.351-.078-.948.363-1.064A.963.963,0,0,1,110.33,28.12Zm-3.788,11.155a15.371,15.371,0,0,0,3.061.324,11.817,11.817,0,0,1,3.126.156.457.457,0,0,1,.078.675c-.752.2-1.467-.24-2.257-.156l-4.242.039c-.163-.038-.35-.13-.35-.324C105.958,39.672,106.308,39.476,106.542,39.275Zm14.49.039c.48,0,.765.4,1.038.752.078.156,0,.441-.233.363h-6.992a.522.522,0,0,1-.233-.558,7.172,7.172,0,0,1,3.048-.195A9.509,9.509,0,0,0,121.032,39.314Zm-7.29,1.193a.843.843,0,0,1,.739.519,1.079,1.079,0,0,1,.039,1.18c-.194.2-.512.129-.752.169a.868.868,0,0,1-.6-.519,1.154,1.154,0,0,1,.13-1.025A.5.5,0,0,1,113.742,40.507ZM90.055,48.978c-.363.058-.452.724-.8.856-.8.272-1.789-.233-2.465.4-.4.83.077,1.784-.117,2.7-.116.558-.792.31-1.232.35a1.906,1.906,0,0,0-1.7.713,2.21,2.21,0,0,0-.078,1.155c.357.79,1.349.752,2.1.908.279,0,.59-.07.791.169.116,1.149.038,2.225.078,3.334a16.082,16.082,0,0,0,0,2.452,1.9,1.9,0,0,0,0,.96c-.04.239-.071.518-.35.558-.558.078-1.2-.162-1.673.117a1.456,1.456,0,0,0-.83.83,1.644,1.644,0,0,0,.078,1.077c.589.713,1.5.56,2.335.636.837.2.442,1.271.519,1.907l.078,1.31c.241.83,1.271.6,1.907.83l1.349-.156c.877.241,1.9-.163,2.776.039a11.862,11.862,0,0,1,3.165-.117c.676-.045,1.388-.051,2.1-.091.6.4,1.239.914,2,.675a2.886,2.886,0,0,1,2.335-.545l1.673-.091.311.13,2.024-.078c1.234.04,2.5-.13,3.853-.052l1.155-.078,1.025-.272c.714-.674.248-1.784.4-2.659.125-.319.033-.753.428-.869.837-.123,1.951-.037,2.27-1a1.6,1.6,0,0,0-.078-1.155,2.331,2.331,0,0,0-1.271-.675c-.473.078-1.148.124-1.427-.311.2-2.379-.077-4.4.117-6.784l.272-.363c.79-.163,1.791-.039,2.192-.908a1.294,1.294,0,0,0-.246-1.232c-.473-.876-1.621-.155-2.257-.675-.4-.835.239-1.744-.078-2.659-.52-.908-1.666-.6-2.543-.6a3.571,3.571,0,0,0-1.673-.584,5.49,5.49,0,0,1-2.971.7c-1.311.155-2.581-.156-3.853-.078a2.624,2.624,0,0,0-2.179.48l-1-.441c-2.457-.395-5.067.6-7.446-.272l-.752-.48a.484.484,0,0,0-.311-.065Zm18.5,1.09c.228-.016.473-.011.415.285-.357,2.614.079,5.086-.039,7.744.118,2.064-.116,3.97,0,6.032-.078.52.156,1.149-.195,1.583a4.753,4.753,0,0,1-2.659.519l-4.631-.039c-.6-.076-.961.55-1.557.311-.2-.551.279-1.1,0-1.66a18.768,18.768,0,0,0-.039-2.945,7.7,7.7,0,0,1,.117-2.374c.078-.156.245-.039.363.039a2.284,2.284,0,0,1,.311,2.024c.078.239.364.272.6.272.52-.04,1.226.279,1.544-.195-.078-.636-1.025-.706-1.025-1.427-.123-1.31-.875-2.387-1.038-3.7-.234-.792-.473-1.583-.752-2.335-.04-1.071-.04-1.992,0-3.061.123-.714.959-.473,1.479-.675,1.348,0,2.646.24,4,.156a5.489,5.489,0,0,0,2.906-.545C108.4,50.081,108.477,50.073,108.553,50.068Zm-18.109.091a5.8,5.8,0,0,1,1.466.428c2.218.233,4.442-.4,6.629.078.907.434.39,1.427.506,2.179a9.841,9.841,0,0,1-.389,3.061c-.6,1.667-.792,3.419-1.388,5.046-.241.279-.888.351-.649.83a2.063,2.063,0,0,0,1.193.117.349.349,0,0,0,.441-.272c-.078-.712-.278-1.511.233-2.063a.417.417,0,0,1,.519-.078c.317.986,0,1.933.078,2.971-.04,1.031.117,2.258.039,3.295,0,.195.038.48-.195.558-.636.123-1.232-.194-1.868-.078l-1.388.039c-.875,0-1.783-.079-2.659-.039a4.47,4.47,0,0,1-2.413-.4l-.233-.272c-.04-3.256.038-6.358-.078-9.69a29.515,29.515,0,0,0-.039-5.241C90.367,50.471,90.2,50.282,90.444,50.158Zm21.015.221a.715.715,0,0,1,.688.688,4.709,4.709,0,0,0,.272,2.543c.6.319,1.427.122,2.063.441a.727.727,0,0,1,.039.636c-.674.674-2.057-.131-2.374,1.025-.118,1.466.072,2.736-.039,4.164a17.14,17.14,0,0,0,.117,3.814c.6.714,1.737.118,2.413.713a.537.537,0,0,1,0,.636c-.558.752-1.854-.122-2.3.752a17.457,17.457,0,0,0-.311,2.906c-.511.636-1.387.234-2.063.428-2.977-.078-5.792.163-8.73,0-.161-.116-.408-.35-.208-.545l.363-.169c2.939-.116,6.026.084,8.925-.195a.993.993,0,0,0,.882-.558c.2-2.184.078-4.566.078-6.707.156-3.061-.038-6.35,0-9.4,0-.395-.719-.745-.208-1.064A.814.814,0,0,1,111.458,50.379Zm-23.233.182a.342.342,0,0,1,.311.35c-.032.4-.4.63-.48,1.025-.156,2.3.038,4.807,0,7.07a27.664,27.664,0,0,1-.078,3.606,10.459,10.459,0,0,1,0,1.907c.116,1.312.078,2.386.195,3.658l.285.233c1.979.047,4.086-.233,6.188-.039l3.178.039c.078.125.272.363.078.519a12.821,12.821,0,0,1-1.764.195c-1.225-.123-2.407.234-3.632,0-1.511,0-3.03.235-4.527.117a.809.809,0,0,1-.519-.428,16.46,16.46,0,0,0-.233-2.828c-.558-.83-1.753-.279-2.465-.752a.39.39,0,0,1-.156-.519c.636-.636,1.59-.312,2.387-.545.319-.24.271-.681.311-1,.038-2.024,0-3.93.039-5.837-.038-.712.156-1.59-.558-2.024-.752-.279-1.862.356-2.257-.6a.645.645,0,0,1,.441-.6c.83-.24,2.095.208,2.374-.908a10.954,10.954,0,0,1,.117-2.257A.893.893,0,0,1,88.226,50.561Zm21.611.078a1.884,1.884,0,0,1,.713.869c.194,3.528.117,7.219.117,10.676l-.078,4.553c-.071.163-.233.046-.311-.039a2.044,2.044,0,0,1-.636-1.933c-.045-2.225-.079-4.924-.039-7.109l.039-1.388V53.959a24.558,24.558,0,0,1,0-3.087ZM89.25,50.95c.667.116.116.838.272,1.271.038,4.242.039,8.446.039,13.011a1.8,1.8,0,0,1-.675,1.673.224.224,0,0,1-.233-.208l.039-1.583c0-4.487-.078-8.9,0-13.218A2.734,2.734,0,0,1,89.25,50.95ZM96.4,54.167c-.6.513-1.4.35-2.153.311a1.653,1.653,0,0,1-1.349-.195.367.367,0,0,0-.545.117c-.123.512-.486,1.026-.285,1.544a.262.262,0,0,0,.389.039,1.493,1.493,0,0,1,1-.869,1.088,1.088,0,0,1,.558.4l-.117,1.933c.038.953-.046,1.991.039,2.906.194.636-.909.91-.389,1.544a.87.87,0,0,0,.7,0c.435,0,.954.2,1.271-.156.241-.357-.189-.551-.311-.83-.04-1.193-.052-2.581-.13-3.814.2-.6-.233-1.317.169-1.79.591-.319.6.566,1.155.519.433-.232.234-.875.428-1.31C96.859,54.323,96.6,54.167,96.4,54.167Zm10.053.337a.951.951,0,0,0-.532.182,1.867,1.867,0,0,0-2.387,2.335c.551,1.388,2.419,1.5,2.932,2.932a1.132,1.132,0,0,1-.506,1.116,1.42,1.42,0,0,1-1.427-.363c-.48-.24-.246-.947-.8-.947-.6.279-.148,1.071-.272,1.621.046.116.078.324.272.285.6-.513,1.122.233,1.751.195a2.216,2.216,0,0,0,1.5-.675,2.3,2.3,0,0,0,.48-1.66c-.284-1.673-2.224-1.75-3.022-3.022a.868.868,0,0,1,.039-.869c.362-.395.875-.116,1.31-.078.355.195.488.946,1,.636a2.14,2.14,0,0,0,0-1.31A.326.326,0,0,0,106.451,54.5Zm-7.368,2.257c.1-.014.178.113.208.233l-.13,1.621c-.032.156-.266.194-.389.078-.317-.591.078-1.272.195-1.868A.229.229,0,0,1,99.083,56.761Zm.83,1.44a.272.272,0,0,1,.169.324c-.038.04-.039.117-.117.117-.2.04-.156-.148-.156-.272.01-.089.031-.138.065-.156A.081.081,0,0,1,99.913,58.2ZM90.12,66.387c.435.078.758.362,1.193.48,1.984.155,4.086.078,6.11.078a1.873,1.873,0,0,1,1.232.233c.078.116-.013.279-.091.4l-.272.156L91.858,67.7a13.832,13.832,0,0,0-2.257-.078c-.118,0-.35.032-.35-.169A1.825,1.825,0,0,1,90.12,66.387Zm19.017,0c.39.008.64.662.908.96.078.317-.325.31-.519.35-1.473-.084-2.816,0-4.281,0-1.428.077-2.944-.04-4.41,0-.2-.124-.4-.349-.233-.545a5.1,5.1,0,0,1,2.335-.208c1.946-.076,3.9.207,5.76-.311A.621.621,0,0,1,109.136,66.387Zm-9.534,1.3c.26.005.456.255.558.493.234.4,0,.824.039,1.3a.689.689,0,0,1-.675.285.77.77,0,0,1-.636-.558c-.279-.319-.083-.752,0-1.1.2-.156.325-.364.6-.4A.479.479,0,0,1,99.6,67.684Z"/><path id="path44" d="M69.121,13.38V34.861c0,32.978,30.6,49.449,30.6,49.449l.221.117.221-.117s30.6-16.471,30.6-49.449V13.38H69.121Zm.934.934H129.83V34.861c0,31.709-28.657,47.812-29.887,48.489-1.23-.677-29.887-16.78-29.887-48.489C70.055,34.861,70.055,15.206,70.055,14.314Z"/><path id="path46" class="cls-2" d="M70.055,14.314H129.83V34.861c0,31.709-28.657,47.812-29.887,48.489-1.23-.677-29.887-16.78-29.887-48.489C70.055,34.861,70.055,15.206,70.055,14.314Zm23.177,7.424c-.318-.007-.586.372-.882.519-1.551.712-3.147.155-4.89.389l-1.31.441c-.357-.04-.629-.285-.986-.324a23.959,23.959,0,0,0-3.736-.039,5.862,5.862,0,0,1-2.659-.83c-.512-.04-.474.682-.947.713a4.993,4.993,0,0,1-1.077.039,1.112,1.112,0,0,0-1.077.558l-.117,2.335a.439.439,0,0,1-.272.4c-.915.04-1.993-.092-2.348.908-.078.435-.2.987.117,1.349a2.6,2.6,0,0,0,2.024.519c.518.078.4.668.4,1.025.085,1.984-.156,3.891,0,5.993-.234,1.031-1.545.084-2.14.713a1.671,1.671,0,0,0-.4,1.116,1.13,1.13,0,0,0,.713,1.271c.6.233,1.278.045,1.829.363.279.913-.194,2.174.4,3.048a1.874,1.874,0,0,0,1.1.4,15.312,15.312,0,0,0,3.58-.078,29.714,29.714,0,0,1,3.723.039c.317.123.759.078.882.48a1.912,1.912,0,0,0,1.946.272c.357-.317.59-.753,1.025-.869l1.985.078a3.377,3.377,0,0,1,1.777-.078c1.031.038,2.07.038,3.061,0a3.366,3.366,0,0,0,1.5-.441c.6-1.076-.208-2.341.428-3.373.636-.156,1.35.195,1.868-.285a1.506,1.506,0,0,0,.532-1.427,2,2,0,0,0-2.114-.908c-.357-.078-.43-.473-.506-.752-.085-1.783.027-3.379.065-5.123.2-.558-.155-1.071.246-1.544.589-.435,1.466-.039,1.946-.713.032-.442.239-1.161-.195-1.518a1.989,1.989,0,0,0-1.557-.389c-1.147-.837.04-2.031-.636-3.061a2.158,2.158,0,0,0-1.946-.35,1.672,1.672,0,0,1-1.025-.713A.512.512,0,0,0,93.233,21.737Zm28.071.13a.818.818,0,0,0-.143.039c-1.821,1.419-4.443.317-6.59.83-.241.038-.4.318-.713.233-1.667-.908-3.692-.08-5.435-.506-.759-.047-1.441-.765-2.153-.363-.319,1.1-1.622.227-2.374.506-1.31.551-.435,1.979-.675,3.048-.442.837-1.557.052-2.153.726a1.4,1.4,0,0,0-.467,1.064c.078,1.544,1.946.675,2.7,1.466-.194.953.116,1.952-.078,2.789-.116,1.388.239,2.738.078,4.047-.676.714-2.14-.045-2.5,1.1-.312.48-.006.992.233,1.427a2.614,2.614,0,0,0,1.907.48c.674.636.286,1.627.324,2.5.078.31-.084.629.195.908a8.265,8.265,0,0,0,2.62.285c1.944,0,3.691,0,5.474.078.915-.239,1.471.714,2.348.752.83.118.953-1.033,1.79-.83l4.047.039a23.072,23.072,0,0,1,2.335.078c.785-.163,1.738.154,2.218-.48a16.86,16.86,0,0,0,.272-2.815c.241-.8,1.31-.28,1.868-.636a1.271,1.271,0,0,0,.791-.986c.161-.6-.233-1.038-.6-1.44-.473-.272-.985-.117-1.5-.233a.732.732,0,0,1-.467-.675,20.608,20.608,0,0,1,.078-3.528,12.941,12.941,0,0,1,0-2.789l.156-.233c.636-.161,1.388.084,1.868-.389a1.445,1.445,0,0,0,.272-1.518c-.241-.953-1.31-.707-2.024-.83-.674-.317-.31-1.032-.35-1.583,0-.52.228-1.238-.363-1.634a3.516,3.516,0,0,0-1.66-.065c-.741.182-.649-.929-1.323-.869ZM90.055,48.978c-.363.058-.452.724-.8.856-.8.272-1.789-.233-2.465.4-.4.83.077,1.784-.117,2.7-.116.558-.792.31-1.232.35a1.906,1.906,0,0,0-1.7.713,2.21,2.21,0,0,0-.078,1.155c.357.79,1.349.752,2.1.908.279,0,.59-.07.791.169.116,1.149.038,2.225.078,3.334a16.082,16.082,0,0,0,0,2.452,1.9,1.9,0,0,0,0,.96c-.04.239-.071.518-.35.558-.558.078-1.2-.162-1.673.117a1.456,1.456,0,0,0-.83.83,1.644,1.644,0,0,0,.078,1.077c.589.713,1.5.56,2.335.636.837.2.442,1.271.519,1.907l.078,1.31c.241.83,1.271.6,1.907.83l1.349-.156c.877.241,1.9-.163,2.776.039a11.862,11.862,0,0,1,3.165-.117c.676-.045,1.388-.051,2.1-.091.6.4,1.239.914,2,.675a2.886,2.886,0,0,1,2.335-.545l1.673-.091.311.13,2.024-.078c1.234.04,2.5-.13,3.853-.052l1.155-.078,1.025-.272c.714-.674.248-1.784.4-2.659.125-.319.033-.753.428-.869.837-.123,1.951-.037,2.27-1a1.6,1.6,0,0,0-.078-1.155,2.331,2.331,0,0,0-1.271-.675c-.473.078-1.148.124-1.427-.311.2-2.379-.077-4.4.117-6.784l.272-.363c.79-.163,1.791-.039,2.192-.908a1.294,1.294,0,0,0-.246-1.232c-.473-.876-1.621-.155-2.257-.675-.4-.835.239-1.744-.078-2.659-.52-.908-1.666-.6-2.543-.6a3.571,3.571,0,0,0-1.673-.584,5.49,5.49,0,0,1-2.971.7c-1.311.155-2.581-.156-3.853-.078a2.624,2.624,0,0,0-2.179.48l-1-.441c-2.457-.395-5.067.6-7.446-.272l-.752-.48a.484.484,0,0,0-.311-.065Z"/><g id="g3225"><path id="path3227" class="cls-3" d="M95.282,23.307a.463.463,0,0,1,.558.337c.31.908-.012,1.861.221,2.776.6.513,1.674-.123,2.153.636a.529.529,0,0,1-.4.6c-.513.239-1.355-.2-1.673.4-.234,1.666-.038,3.08-.233,4.747a26.291,26.291,0,0,0,.156,3.5c.558,1.031,2.231-.208,2.387,1.142-.473.991-1.945-.15-2.465.843-.078.953-.123,2.016-.195,2.971-.078.233-.312.286-.506.4L91,41.74c-.837-.156-1.706.24-2.543-.039-.2.156-.433,0-.636-.039a.455.455,0,0,1-.039-.324,4.527,4.527,0,0,1,1.946-.195l2.776-.078c.875.038,2.1.279,2.568-.636.319-2.024-.026-4.092.13-6.2.045-2.5.039-4.76.039-7.342a18.818,18.818,0,0,0-.285-3.321A.388.388,0,0,1,95.282,23.307Z"/><path id="path3229" class="cls-3" d="M76.745,23.527c.868,0,0,.786.156,1.219l-.078,2.076c-.038,3.332.117,6.732-.039,9.949.038,1.31.156,2.427.195,3.7.118.674.83.559,1.271.675,1.031-.116,2.094.124,3.087.039a21.129,21.129,0,0,1,3.139,0c.116.038.272.117.272.272.045.239-.188.364-.389.4-2.5-.078-5.086.04-7.5-.078a.811.811,0,0,1-.558-.519c-.123-.915.007-1.985-.156-2.854-.674-.518-1.828.116-2.348-.675a.5.5,0,0,1,.13-.6c.551-.433,1.349-.083,1.985-.324l.195-.195c.279-2.581-.046-5.079.195-7.575-.163-.355-.084-.837-.519-1.038a5.227,5.227,0,0,0-1.349.039c-.319-.156-.713-.11-.869-.467a.733.733,0,0,1,.48-.726c.634-.4,1.822.291,2.063-.739C76.467,25.31,75.954,24.123,76.745,23.527Z"/><path id="path3231" class="cls-3" d="M104.531,23.255a.666.666,0,0,1,.428.078l.117.117a3.925,3.925,0,0,0-.428,2.024c-.038,1.945-.039,3.716-.039,5.578.078,2.783-.118,6.234.078,9.132.038.319.273.48.545.636,2.223.2,4.4-.031,6.668.208.163.078.363.078.441.272.045.2-.156.279-.272.363-1.946.078-3.931-.084-5.876.039-.714-.161-1.823.272-2.14-.558-.078-.712,0-1.433-.078-2.153a1.335,1.335,0,0,0-.6-.869c-.636-.2-1.661.195-1.933-.636a.543.543,0,0,1,.428-.6c.6-.156,1.5.079,1.855-.6a34.662,34.662,0,0,0,.208-4.994c-.118-.83.039-1.783-.039-2.7-.317-.993-1.473-.6-2.231-.791a.562.562,0,0,1-.272-.791c.721-.676,2.3.072,2.5-1.155a8.386,8.386,0,0,1,.246-2.452A.916.916,0,0,1,104.531,23.255Z"/><path id="path3233" class="cls-3" d="M123.185,23.411a.861.861,0,0,1,.752.272c.435.953-.512,2.664.908,2.984.52.156,1.3-.169,1.544.467a.686.686,0,0,1-.039.558c-.674.674-2.134-.279-2.335.908a10.728,10.728,0,0,1,0,1.945v2.776a7.7,7.7,0,0,0,.156,3.1l.311.233c.676.156,1.55-.11,2.024.441.045.279-.032.636-.311.713-.674.44-1.861-.356-2.218.6A23.547,23.547,0,0,1,123.7,41.3l-.363.324c-2.024.155-3.97,0-5.954.039l-1.946-.039a.275.275,0,0,1-.117-.363c.837-.558,2.031-.118,3.022-.195,1.35.038,2.737,0,4.125-.039.953-.435.4-1.472.636-2.309.078-2.3.039-4.6.117-6.9-.04-2.379-.077-4.689-.039-6.991C123.225,24.313,122.549,23.683,123.185,23.411Z"/><path id="path3235" class="cls-3" d="M111.458,50.379a.715.715,0,0,1,.688.688,4.709,4.709,0,0,0,.272,2.543c.6.319,1.427.122,2.063.441a.727.727,0,0,1,.039.636c-.674.674-2.057-.131-2.374,1.025-.118,1.466.072,2.736-.039,4.164a17.14,17.14,0,0,0,.117,3.814c.6.714,1.737.118,2.413.713a.537.537,0,0,1,0,.636c-.558.752-1.854-.122-2.3.752a17.457,17.457,0,0,0-.311,2.906c-.511.636-1.387.234-2.063.428-2.977-.078-5.792.163-8.73,0-.161-.116-.408-.35-.208-.545l.363-.169c2.939-.116,6.026.084,8.925-.195a.993.993,0,0,0,.882-.558c.2-2.184.078-4.566.078-6.707.156-3.061-.038-6.35,0-9.4,0-.395-.719-.745-.208-1.064A.814.814,0,0,1,111.458,50.379Z"/><path id="path3237" class="cls-3" d="M88.226,50.561a.342.342,0,0,1,.311.35c-.032.4-.4.63-.48,1.025-.156,2.3.038,4.807,0,7.07a27.664,27.664,0,0,1-.078,3.606,10.459,10.459,0,0,1,0,1.907c.116,1.312.078,2.386.195,3.658l.285.233c1.979.047,4.086-.233,6.188-.039l3.178.039c.078.125.272.363.078.519a12.821,12.821,0,0,1-1.764.195c-1.225-.123-2.407.234-3.632,0-1.511,0-3.03.235-4.527.117a.809.809,0,0,1-.519-.428,16.46,16.46,0,0,0-.233-2.828c-.558-.83-1.753-.279-2.465-.752a.39.39,0,0,1-.156-.519c.636-.636,1.59-.312,2.387-.545.319-.24.271-.681.311-1,.038-2.024,0-3.93.039-5.837-.038-.712.156-1.59-.558-2.024-.752-.279-1.862.356-2.257-.6a.645.645,0,0,1,.441-.6c.83-.24,2.095.208,2.374-.908a10.954,10.954,0,0,1,.117-2.257A.893.893,0,0,1,88.226,50.561Z"/></g><g id="g3239"><path id="path56" class="cls-1" d="M79.573,23.1c.274.01.532.2.83.233a8.529,8.529,0,0,0,2.815.195c.234.078.435-.079.636-.117a2.348,2.348,0,0,1,1.466.35l.272.6c.038,2.263.154,4.358,0,6.745v.752l-.078,3.84a30.7,30.7,0,0,0,.156,3.295c-.04.125-.111.285-.233.285a20.162,20.162,0,0,0-4.125-.363c-.674.077-1.583.161-2.063-.35-.272-.279.046-.6-.117-.882.116-2.178-.038-4.721-.078-6.823.078-1.627-.039-3.133.117-4.721-.118-.713.046-1.577-.039-2.335a.55.55,0,0,1,.156-.636A.586.586,0,0,1,79.573,23.1Zm1.219,4.475c-.4.161-1.147-.117-1.193.441,0,.227.279.265.4.428a13.6,13.6,0,0,1,1.31,3.126,10.037,10.037,0,0,0,.558,1.6c.116.636.233,1.383.869,1.621.239,0,.351-.194.467-.35.636-1.944,1.037-4.009,1.673-5.915.085-.156.31-.326.233-.558a1.134,1.134,0,0,0-.947-.272c-.194.084-.481.157-.441.467.712.953-.072,2.146-.195,3.139-.156.44-.078,1.155-.636,1.232a3.543,3.543,0,0,1-.558-1.349,13.722,13.722,0,0,1-.752-2.27c0-.357.287-.539.363-.856C81.831,27.541,81.188,27.613,80.793,27.575Z"/><path id="path58" class="cls-1" d="M92.662,22.892a.326.326,0,0,1,.311.389c.116.752-.122,1.5-.039,2.374,0,1.628.149,3.133,0,4.721,0,2.419-.039,4.535.039,6.875-.033.473.122,1.186-.389,1.5l-.96.233a30.71,30.71,0,0,0-5.072.169c-.636-.239-.078-1-.156-1.557-.163-3.217-.17-6.577-.13-9.754a12.6,12.6,0,0,0,.039-2.75c.163-.558.091-1.337.765-1.531a12.343,12.343,0,0,1,2.452-.13A5.355,5.355,0,0,0,92.662,22.892Zm-2.5,4.683a21.927,21.927,0,0,0-2.815.233c-.31.395.325.623.441,1.025.038,1.589,0,3.133-.039,4.8,0,.442-.72.875-.169,1.193.837.038,1.627.118,2.426.156.473.04,1.025.091,1.3-.389.163-.279.369-.643.169-.96,0-.194-.248-.389-.4-.311-.234.355-.3.754-.739.908-.48,0-1.2.285-1.518-.195-.038-.868-.395-2.1.117-2.776.636-.433,1.122.791,1.557.039a1.084,1.084,0,0,0-.117-1.077c-.48.04-.713.68-1.271.441-.6-.357-.286-1.278-.324-1.868a.684.684,0,0,1,.713-.506c.52-.038.753.544,1.193.7.266-.078.265-.39.233-.584C90.632,28.126,90.677,27.535,90.158,27.575Z"/><path id="path60" class="cls-1" d="M120.682,22.931c.2,0,.233.194.233.35-.156,2.736.156,5.592-.078,8.25.111,2.218-.079,4.613-.039,6.914-.241.475-.948.467-1.5.467-1.388.155-2.815-.156-4.125,0-.435-.04-.915.559-1.232.117.038-1.109.156-2.1.195-3.165-.163-4.17-.037-7.622.039-11.752a.944.944,0,0,1,.713-.675C116.791,23.249,118.932,23.721,120.682,22.931ZM117.464,27.5c-.473.154-1.109-.125-1.544.195-.161.35.156.63.272.947a37.575,37.575,0,0,1-.039,5.2c-.078.279-.479.435-.519.713-.078.116.078.273.195.311a11.849,11.849,0,0,1,1.673.039c.714-.319-.117-.746-.156-1.142.038-1.79-.117-3.38.039-5.085.156-.319.545-.557.467-.947C117.822,27.536,117.627,27.535,117.464,27.5Z"/><path id="path62" class="cls-1" d="M107.1,22.931a3.178,3.178,0,0,1,1.349.324,16.1,16.1,0,0,0,3.619,0c.357.078.863-.045,1.064.389a8.357,8.357,0,0,1,.195,3.295c.083,2.3-.156,4.677,0,6.94,0,.63-.077,1.193-.039,1.829-.116,1.071-.038,2.024-.078,3.178-.239.195-.6.038-.83,0a20.894,20.894,0,0,0-2.3-.039,3.053,3.053,0,0,0-1.038.078c-.707-.154-1.628.039-2.179-.519a3.2,3.2,0,0,1,0-1.5c.038-2.939-.241-5.766-.039-8.743V24.046C106.827,23.689,106.743,23.131,107.1,22.931Zm1.232,4.566a.419.419,0,0,0-.311.363c0,.239.272.272.428.428a3.122,3.122,0,0,1,.246,1.7c-.04,1.348-.077,2.5-.039,3.775-.078.4-.759.589-.4,1.064l1.6.039c.83-.317-.286-.752-.208-1.232a3.861,3.861,0,0,1,.13-1.66.293.293,0,0,1,.35.078,24.726,24.726,0,0,0,1.349,2.218,1,1,0,0,0,.908.558c.156-.078.4-.194.311-.428-.745-.6-.895-1.517-1.531-2.231-.123-.239-.038-.395,0-.636a3.816,3.816,0,0,0,1.3-1.466,3.868,3.868,0,0,0-.078-1.349,2.181,2.181,0,0,0-1.7-1.219C109.888,27.457,109.129,27.575,108.332,27.5Zm2,.623a1.116,1.116,0,0,1,1.064.921,1.5,1.5,0,0,1-.078,1.349,1.368,1.368,0,0,1-1.116.675c-.953-.123-.357-1.273-.48-1.829.045-.351-.078-.948.363-1.064A.964.964,0,0,1,110.33,28.12Z"/><path id="path64" class="cls-1" d="M90.444,50.158a5.8,5.8,0,0,1,1.466.428c2.218.233,4.442-.4,6.629.078.907.434.39,1.427.506,2.179a9.841,9.841,0,0,1-.389,3.061c-.6,1.667-.792,3.419-1.388,5.046-.241.279-.888.351-.649.83a2.063,2.063,0,0,0,1.193.117.349.349,0,0,0,.441-.272c-.078-.712-.278-1.511.233-2.063a.417.417,0,0,1,.519-.078c.317.986,0,1.933.078,2.971-.04,1.031.117,2.258.039,3.295,0,.195.038.48-.195.558-.636.123-1.232-.194-1.868-.078l-1.388.039c-.875,0-1.783-.079-2.659-.039a4.47,4.47,0,0,1-2.413-.4l-.233-.272c-.04-3.256.038-6.358-.078-9.69a29.515,29.515,0,0,0-.039-5.241C90.367,50.471,90.2,50.282,90.444,50.158ZM96.4,54.167c-.6.513-1.4.35-2.153.311a1.653,1.653,0,0,1-1.349-.195.367.367,0,0,0-.545.117c-.123.512-.486,1.026-.285,1.544a.262.262,0,0,0,.389.039,1.492,1.492,0,0,1,1-.869,1.088,1.088,0,0,1,.558.4l-.117,1.933c.038.953-.046,1.991.039,2.906.194.636-.909.91-.389,1.544a.87.87,0,0,0,.7,0c.435,0,.954.2,1.271-.156.241-.357-.189-.551-.311-.83-.04-1.193-.052-2.582-.13-3.814.2-.6-.233-1.317.169-1.79.591-.319.6.566,1.155.519.433-.232.234-.875.428-1.31C96.859,54.323,96.6,54.167,96.4,54.167Zm2.685,2.594c.1-.014.178.113.208.233l-.13,1.621c-.032.156-.266.194-.389.078-.317-.591.078-1.272.195-1.868A.229.229,0,0,1,99.083,56.761Z"/><path id="path66" class="cls-1" d="M108.553,50.068c.228-.016.473-.011.415.285-.357,2.614.079,5.086-.039,7.744.118,2.064-.116,3.97,0,6.032-.078.52.156,1.149-.195,1.583a4.753,4.753,0,0,1-2.659.519l-4.631-.039c-.6-.076-.961.55-1.557.311-.2-.551.279-1.1,0-1.66a18.768,18.768,0,0,0-.039-2.945,7.7,7.7,0,0,1,.117-2.374c.078-.156.245-.039.363.039a2.284,2.284,0,0,1,.311,2.024c.078.239.364.272.6.272.52-.04,1.226.279,1.544-.195-.078-.636-1.025-.706-1.025-1.427-.123-1.31-.875-2.387-1.038-3.7-.234-.792-.473-1.583-.752-2.335-.04-1.071-.04-1.992,0-3.061.123-.714.959-.473,1.479-.675,1.348,0,2.646.24,4,.156a5.489,5.489,0,0,0,2.906-.545C108.4,50.081,108.477,50.073,108.553,50.068Zm-2.1,4.437a.951.951,0,0,0-.532.182,1.867,1.867,0,0,0-2.387,2.335c.551,1.388,2.419,1.5,2.932,2.932a1.132,1.132,0,0,1-.506,1.116,1.42,1.42,0,0,1-1.427-.363c-.48-.24-.246-.947-.8-.947-.6.279-.148,1.071-.272,1.621.046.116.078.324.272.285.6-.513,1.122.233,1.751.195a2.216,2.216,0,0,0,1.5-.675,2.3,2.3,0,0,0,.48-1.66c-.284-1.673-2.224-1.75-3.022-3.022a.868.868,0,0,1,.039-.869c.362-.395.875-.116,1.31-.078.355.195.488.946,1,.636a2.14,2.14,0,0,0,0-1.31A.326.326,0,0,0,106.451,54.5Zm-6.538,3.7a.272.272,0,0,1,.169.324c-.038.04-.039.117-.117.117-.2.04-.156-.148-.156-.272.01-.089.031-.138.065-.156A.077.077,0,0,1,99.913,58.2Z"/></g><g id="g3253"><path id="path3255" class="cls-1" d="M93.843,23.385c.323-.014.469.379.571.584a1.354,1.354,0,0,1,.182.934c.118,3.294,0,6.706,0,10v4.138c0,.156-.064.272-.182.272-.511-.24-.636-.8-.83-1.271.04-2.1.039-3.969.039-6.071.038-2.5-.077-5.162.039-7.7a1.283,1.283,0,0,1,.039-.856A.417.417,0,0,1,93.843,23.385Z"/><path id="path3257" class="cls-1" d="M78.211,23.566c.2-.038.2.155.233.233a.481.481,0,0,0-.026.6c.111,1.232-.2,2.568,0,3.762-.083,1.7,0,3.34,0,5.085-.083,1.31-.052,2.932-.052,4.242.116.877.116,1.868-.675,2.348-.319-.038-.155-.395-.233-.558.078-.79-.045-1.55,0-2.387.156-2.3-.124-4.675.039-7.018V24.747C77.614,24.313,77.731,23.769,78.211,23.566Z"/><path id="path3259" class="cls-1" d="M93.414,39.236c.42.051.514.6.791.882.078.156-.11.35-.272.35H91.508c-.953.033-1.705.078-2.7.078-.674-.123-1.46.4-1.855-.311-.123-.234.155-.4.311-.48.556-.232,1.071.163,1.66,0,1.394-.076,3.017.09,4.281-.506A.686.686,0,0,1,93.414,39.236Z"/><path id="path3261" class="cls-1" d="M78.886,39.353c.317-.038.518.17.752.285,1.582.272,3.372,0,4.916.156.239.078.559.11.636.389,0,.163,0,.4-.233.441-1.946-.357-3.963.085-5.9-.156-.239-.038-.766.109-.8-.246A1.052,1.052,0,0,1,78.886,39.353Z"/><path id="path3263" class="cls-1" d="M121.9,23.476c.306.043.349.449.519.688l.156.467c.078,2.5.037,5.072-.039,7.692-.078,1.27.077,2.381.039,3.7-.188,1.071.116,2.186-.078,3.217a.279.279,0,0,1-.428-.039,1.655,1.655,0,0,1-.558-1.5c0-3.256,0-6.363.039-9.534.156-1.473-.078-2.77,0-4.268.038-.163,0-.358.195-.4A.528.528,0,0,1,121.9,23.476Z"/><path id="path3265" class="cls-1" d="M105.829,23.67c.039,0,.08.034.13.1a4.986,4.986,0,0,1,.156,1.531c-.116,1.3.155,2.66-.039,4.008.038,3.061,0,6.188-.039,9.365-.2.279-.2.713-.6.791-.234.038-.194-.227-.233-.35.156-.915-.124-1.745.039-2.62-.125-3.451,0-6.558-.039-9.806.078-1-.163-1.822.272-2.7.151-.087.234-.326.35-.324Z"/><path id="path3267" class="cls-1" d="M106.542,39.275a15.371,15.371,0,0,0,3.061.324,11.817,11.817,0,0,1,3.126.156.457.457,0,0,1,.078.675c-.752.2-1.467-.24-2.257-.156l-4.242.039c-.163-.038-.35-.13-.35-.324C105.958,39.672,106.308,39.476,106.542,39.275Z"/><path id="path3269" class="cls-1" d="M121.032,39.314c.48,0,.765.4,1.038.752.078.156,0,.441-.233.363h-6.992a.522.522,0,0,1-.233-.558,7.172,7.172,0,0,1,3.048-.195A9.509,9.509,0,0,0,121.032,39.314Z"/><path id="path3271" class="cls-1" d="M109.837,50.639a1.884,1.884,0,0,1,.713.869c.194,3.528.117,7.219.117,10.676l-.078,4.553c-.071.163-.233.046-.311-.039a2.044,2.044,0,0,1-.636-1.933c-.045-2.225-.079-4.924-.039-7.109l.039-1.388V53.959a24.558,24.558,0,0,1,0-3.087Z"/><path id="path3273" class="cls-1" d="M89.25,50.95c.667.116.116.838.272,1.271.038,4.242.039,8.446.039,13.011a1.8,1.8,0,0,1-.675,1.673.224.224,0,0,1-.233-.208l.039-1.583c0-4.487-.078-8.9,0-13.218A2.737,2.737,0,0,1,89.25,50.95Z"/><path id="path3275" class="cls-1" d="M90.12,66.387c.435.078.758.362,1.193.48,1.984.155,4.086.078,6.11.078a1.873,1.873,0,0,1,1.232.233c.078.116-.013.279-.091.4l-.272.156L91.858,67.7a13.832,13.832,0,0,0-2.257-.078c-.118,0-.35.032-.35-.169A1.825,1.825,0,0,1,90.12,66.387Z"/><path id="path3277" class="cls-1" d="M109.136,66.387c.39.008.64.662.908.96.078.317-.325.31-.519.35-1.473-.084-2.816,0-4.281,0-1.428.077-2.944-.04-4.41,0-.2-.124-.4-.349-.233-.545a5.1,5.1,0,0,1,2.335-.208c1.946-.076,3.9.207,5.76-.311A.621.621,0,0,1,109.136,66.387Z"/></g><g id="g3279"><path id="path3281" class="cls-3" d="M86.267,40.676a1.352,1.352,0,0,1,.869.869c-.032.4-.026.94-.467,1.1a.747.747,0,0,1-.752-.078c-.435-.2-.286-.63-.324-1.025A.926.926,0,0,1,86.267,40.676Z"/><path id="path3283" class="cls-3" d="M113.742,40.507a.843.843,0,0,1,.739.519,1.079,1.079,0,0,1,.039,1.18c-.194.2-.512.129-.752.169a.868.868,0,0,1-.6-.519,1.154,1.154,0,0,1,.13-1.025A.5.5,0,0,1,113.742,40.507Z"/><path id="path3285" class="cls-3" d="M99.6,67.684c.26.005.456.255.558.493.234.4,0,.824.039,1.3a.689.689,0,0,1-.675.285.77.77,0,0,1-.636-.558c-.279-.319-.083-.752,0-1.1.2-.156.325-.364.6-.4A.479.479,0,0,1,99.6,67.684Z"/></g><path id="path85" d="M76.4,64.968a2.061,2.061,0,0,0-1.978,2.647l0,0a1.412,1.412,0,0,0-.413,1.038c0,.065,0,.133,0,.2a2.536,2.536,0,0,1-.034.386c0,.23.006.491.027.792a4.918,4.918,0,0,1,.7.027,4.81,4.81,0,0,1,.08-1.757,2.084,2.084,0,0,0,.469.434,2.976,2.976,0,0,0-.142,1.385,5.594,5.594,0,0,1,.722.189,4.787,4.787,0,0,1-.043-.622,1.834,1.834,0,0,1,.089-.666,2.063,2.063,0,1,0,.526-4.057Zm0,3.432a1.369,1.369,0,1,1,1.368-1.369A1.37,1.37,0,0,1,76.4,68.4ZM93.194,80.26a1.2,1.2,0,0,0-1.2.7c-.611-.672-2.862-3.132-3.8-3.954a2.878,2.878,0,0,1-.652-1.39s-.982-1.727-1.564-.214c-.653-1.11-2.967-4.856-3.562-3.219a7.921,7.921,0,0,0-.174,2.477s.019.485.007,1.048c-.4-.34-.919-.745-.919-.745C79.117,73.7,79.726,75,79.726,75a4.03,4.03,0,0,1,.051,1.85,1.821,1.821,0,0,1,.452.254c.133.093.265.182.4.272a3.343,3.343,0,0,0-.205-1.334c-.478-.739,0-.739,0-.739.747-.029,1.415.719,1.784,1.231a2.195,2.195,0,0,1-.177.768,1.484,1.484,0,0,0-.265.823q.494.315.986.611a6.014,6.014,0,0,1,.409-3.432,3.379,3.379,0,0,0-.3-1.651s-.434-1.434.913-.044a13.962,13.962,0,0,1,2.04,3c-.037.525-.066,1.212-.046,1.926-.731-.2-1.082-1.452-1.082-1.452-.3-1.347-.652-1.3-.652-1.3a2.127,2.127,0,0,0,.131,1.26,9.876,9.876,0,0,1,.619,2.83q.292.153.583.3a2.227,2.227,0,0,1-.072-.913c.08.159.338.172.526.158a8.17,8.17,0,0,0,.168,1.059q.385.185.768.357c-.358-.963-1.026-3.212-.159-4.746,0,0,.391-.826.739.217a28.681,28.681,0,0,0,3.345,3.954,2.976,2.976,0,0,1,.608,2.255q.395.115.786.219c.054-1.2.517-1.562.517-1.562,1.18-1.181,1.179,1.607,1.174,1.962q.493.1.979.187a3.612,3.612,0,0,0-1.545-3.061ZM124.272,13.38h.748c-1.46-1.673-1.892-1.243-1.892-1.243A5.2,5.2,0,0,1,124.272,13.38ZM118.4,74.923s-.506.4-.9.744c-.012-.563.008-1.047.008-1.047a8.071,8.071,0,0,0-.171-2.477c-.585-1.637-2.854,2.108-3.495,3.218-.572-1.512-1.534.214-1.534.214a2.9,2.9,0,0,1-.639,1.39c-.917.822-3.126,3.283-3.725,3.955a1.172,1.172,0,0,0-1.177-.7s-1.377.729-1.52,3.144q.478-.078.943-.169c.007-.022.015-.041.022-.064,0,0-.084-3.259,1.151-2,0,0,.488.384.513,1.69q.4-.1.793-.208a2.983,2.983,0,0,1,.569-2.395,28.6,28.6,0,0,0,3.281-3.954c.341-1.043.725-.217.725-.217.967,1.745-.014,4.416-.279,5.066.27-.114.534-.229.789-.345A7.4,7.4,0,0,0,114,79.383c.185.014.438,0,.517-.159a1.959,1.959,0,0,1-.283,1.325l.132-.062.62-.351a12.374,12.374,0,0,1,.639-3.128,2.161,2.161,0,0,0,.128-1.26s-.341-.044-.64,1.3c0,0-.343,1.256-1.061,1.452.02-.713-.009-1.4-.044-1.926a13.955,13.955,0,0,1,2-3c1.322-1.39.9.043.9.043a3.456,3.456,0,0,0-.3,1.651,6.765,6.765,0,0,1,.341,3.823l.583-.322c.154-.095.3-.188.442-.277a1.711,1.711,0,0,0-.257-1.226,2.217,2.217,0,0,1-.174-.768c.362-.512,1.018-1.259,1.75-1.23,0,0,.468,0,0,.739,0,0-.425,1.17-.087,1.649l.045-.033.724-.574a4.344,4.344,0,0,1,0-2.085s.6-1.3-1.578-.044ZM70.906,61.492s-.956.044-2.129,4.345c0,0-.261,1.564.087,1.607,0,0,.478-.087.391-1.347,0,0,.391-.739.391.782,0,0,.565.3.565-.566,0,0-.347-3.171.7-4.3C70.906,62.013,71.515,60.927,70.906,61.492ZM87.242,78.175c.734.63.709,2.467.671,3.162.286.117.571.23.854.338a2.331,2.331,0,0,0-.091-.545,2.816,2.816,0,0,1,.587.728q.3.108.594.208a8.955,8.955,0,0,0-1.485-3.2C87.155,77.306,87.242,78.175,87.242,78.175Zm24.252.659a8.687,8.687,0,0,0-1.48,3.381q.24-.077.475-.156a3.415,3.415,0,0,1,.707-.966,2,2,0,0,0-.076.748c.286-.1.565-.208.839-.314-.028-.34-.185-2.664.643-3.388C112.6,78.139,112.688,77.27,111.494,78.834Zm14.223-10.059c0-.028,0-.055,0-.083s.008-.051.01-.076a1.654,1.654,0,0,0-.347-.9,2.065,2.065,0,1,0-1.724,1.366l-.008.05a.107.107,0,0,1,.083.056,2.136,2.136,0,0,1-.06,1.241l.05.015a6.463,6.463,0,0,1,.7-.181,2.265,2.265,0,0,0-.076-1.386,2.078,2.078,0,0,0,.626-.477,4.645,4.645,0,0,1,.054,1.772c.222-.025.455-.041.7-.045a8.944,8.944,0,0,0,.039-.952A1.567,1.567,0,0,1,125.717,68.774Zm-2.279-.374a1.369,1.369,0,1,1,1.369-1.369A1.37,1.37,0,0,1,123.439,68.4ZM63.26,71.919c-3-3.215-3.649-2.216-3.649-2.216a17.322,17.322,0,0,1,3.345,3.128C63.39,72.657,63.26,71.919,63.26,71.919Zm54.322-58.54h.893c-.649-1.615-2.993-1.46-2.993-1.46A1.272,1.272,0,0,1,114,10.877c-1.391-1.347-3.3-.217-3.3-.217-.575.9-2.813,2.271-3.57,2.72h.974c1.239-.8,2.814-2.111,2.814-2.111,1.269-.943,1.831-.377,2.034-.032l-.078-.011a1.694,1.694,0,0,0-1.631,2.155h.747a1,1,0,0,1,.884-1.46l.277.039.008-.028a1.869,1.869,0,0,0,.744.822l-.042.006.012.16a1,1,0,0,1-.114.461h.745a1.7,1.7,0,0,0,.064-.461l-.015-.2a2.5,2.5,0,0,1,3.028.659Zm28.572,34.231a4.4,4.4,0,0,1,1.955-2.259s.739-1.043-1.521-1.52a2.52,2.52,0,0,0-1.425.056,9.778,9.778,0,0,0,.165-2.055,14.122,14.122,0,0,1-.087-3.78c.521-1.521-.217-1.434-.217-1.434a3.949,3.949,0,0,0-.592.259,3.232,3.232,0,0,0-.364-1.562c-.782-1.043-.217-3.3-.217-3.3,1.434-1.781-.391-1.695-.391-1.695-2.356,1.071-2.717,3.9-2.771,4.876a1.525,1.525,0,0,0-.855.815,3.876,3.876,0,0,1-.844-4.177,2.241,2.241,0,1,0,.571-4.066,2.125,2.125,0,0,0-1.862,2h.014a2.711,2.711,0,0,0-.466.679,8.153,8.153,0,0,1-1.833-3.166,2.65,2.65,0,0,0,1.92-2.309,3.016,3.016,0,0,1,1.086-2.216s1.607-.869-.956-1.26a3.622,3.622,0,0,0-2.009.555,5.23,5.23,0,0,0-1.206-3.205,3.645,3.645,0,0,1-.391-2.693s.217-.869-1.086-.261a9.015,9.015,0,0,0-.9.947,3.329,3.329,0,0,0-1.111-1.174v.851a3.856,3.856,0,0,1,.7.872,3.963,3.963,0,0,0-.67,1.5l-.031-.018v1.075a6.247,6.247,0,0,1,2.466,5.328,2.145,2.145,0,0,0-.2.094,13.551,13.551,0,0,0-2.269-2.467v1.418a4.778,4.778,0,0,1,1.17,2.569,4.07,4.07,0,0,1-1.17-.316v.721a4.361,4.361,0,0,0,.488.16s-.443.306-.488.628v.1a.339.339,0,0,0,.054.14s1.608-.912,2.086.087c0,0,.117.141.3.373a3.3,3.3,0,0,0-2.435.444v.8a3.243,3.243,0,0,1,2.827-.72,10.16,10.16,0,0,1,1.441,2.576,5.4,5.4,0,0,0-1.174-.1,1.9,1.9,0,0,0-3.094-.039v2.378a1.888,1.888,0,0,0,2.022.659c.925.726.509,2.443.509,2.443a12.284,12.284,0,0,0-.048,2.632c-.272-.15-.553-.3-.85-.445,0,0-2.259-.984-.869,1.68,0,0,.248.5.56,1.182a6.531,6.531,0,0,0-1.843-.08c-.014.1-.03.193-.044.29-.027.182-.054.365-.083.546-.018.109-.037.218-.055.326-.031.189-.062.378-.1.565.067.077.112.125.112.125a7.759,7.759,0,0,1,1.434,2.216,6.824,6.824,0,0,0,3.221,2.564c.037.054.074.108.113.16a2.171,2.171,0,1,0,.449,3.776,3.364,3.364,0,0,1,2.114,1.632,4.107,4.107,0,0,1,.243,2.578c-.72-.441-.754.8-.754.8a3.633,3.633,0,0,1-.021,1.336c-.846-.592-.543-2.943-.543-2.943.131-1.216-.3-.868-.3-.868-.943-.1-1.99,1.755-2.413,2.6-2.281-4.167-2.844-2.2-2.844-2.2.558,2.541-.476,3.464-.908,3.73a5.761,5.761,0,0,0-1.786-1.167c-.627-.548-.406,6.985-.356,8.477a2.883,2.883,0,0,1,.578-.061,64.543,64.543,0,0,1,.039-7.807c2.867,1.217,4.04,7.516,4.04,7.516-.087,2.694.869,1.955.869,1.955a6.784,6.784,0,0,1,1.521-4.432,7.691,7.691,0,0,0,2.52-4.779c.217-2.085.869-.348.869-.348a11.326,11.326,0,0,1-.147,9.167,4.668,4.668,0,0,0-1.765,1.477c1.434-2.389,1.434-6.343,1.434-6.343-.261-1.3-.782-.738-.782-.738a4.846,4.846,0,0,1-.912,3.649,7.54,7.54,0,0,0-1.564,4.127c.348.3.348-.13.348-.13.869-2.737,1.651-3.215,1.651-3.215.347,1.043-.956,3.084-.956,3.084-.478,1.216.435.608.435.608,4.953-4.432,8.776-2.78,8.776-2.78a14.487,14.487,0,0,0-3.519,3.084,5.328,5.328,0,0,1-3.6,3.278l.118.113a4.365,4.365,0,0,1,.358.441c1.4-.319,3.168-2.441,3.168-2.441a6.269,6.269,0,0,1,3.693-3.736c2.042-.217.131-1.39.131-1.39-.289-.035-.567-.061-.838-.083,2.177-3.7,2.055-5.174,2.055-5.174.217-2.434-.956-1.217-.956-1.217-1.084,1.15-1.944,1.132-2.3,1.055.052-.181.108-.359.171-.533,0,0,2.259-3.476.261-3a6.927,6.927,0,0,0-2.8,1.157,4.325,4.325,0,0,1,2.46-3.225,2.171,2.171,0,1,0-.333-2.216,3.36,3.36,0,0,0-1.252.563,11.907,11.907,0,0,0,.427-3.221c.689,0,3.021-.256,4.235-3.528Zm-12.83,17.061c-.347-5.242-1.39-5.069-1.39-5.069.767,1.043.318,3.563.318,3.563a9.6,9.6,0,0,0-1.543-2.84,10.891,10.891,0,0,0,.631-2.5c-.217-1.912.13-1.434.13-1.434,2.453,1.154,2.869,5.51,2.939,6.956C133.756,64.131,133.324,64.672,133.324,64.672Zm2.447-2.941c-.313.364-.612.716-.888,1.045a9.379,9.379,0,0,0-.63-3.639,4.273,4.273,0,0,1,.866-2.358c.739-1.26.739-.435.739-.435a18.649,18.649,0,0,0,.624,4.055A8.152,8.152,0,0,1,135.771,61.73Zm8.844-8.573c.045,0,.089-.007.135-.007a1.477,1.477,0,0,1,.454,2.882c-.045,0-.089.007-.135.007a1.477,1.477,0,0,1-.454-2.882Zm-.589-14.93c1-1,.825-.261.825-.261-.782.869.043,3.606.043,3.606a8.5,8.5,0,0,1-2.933,7.044,17.3,17.3,0,0,0,.188-3.139,4.5,4.5,0,0,0,.616-1.906,5.71,5.71,0,0,1,.478-2.259,7.84,7.84,0,0,0-1.217,2.7,12.963,12.963,0,0,0-.522-2.3A10.385,10.385,0,0,1,144.025,38.227Zm-1.434-6.473c1.564-1.086.869.043.869.043-1,1.217-.087,3.259-.087,3.259a5.841,5.841,0,0,1,.2,2.4,7.664,7.664,0,0,0-.7.652,24.387,24.387,0,0,0-1.155-2.229,2.334,2.334,0,0,0-.364-.445A3.579,3.579,0,0,1,142.592,31.753Zm-1.651,4.388c.584.035,1.221,1.776,1.463,2.507a13.272,13.272,0,0,0-1.321,1.962,9.889,9.889,0,0,0-1.4-2.3C139.948,36.027,140.941,36.141,140.941,36.141ZM139.7,28.45c.042,0,.083-.006.125-.006a1.433,1.433,0,0,1,.443,2.8c-.041,0-.082.006-.124.006a1.43,1.43,0,0,1-.791-.242,1.12,1.12,0,0,0-.592-1.552,1.436,1.436,0,0,1,.939-1Zm-4.307-3.779a13.4,13.4,0,0,0,.1-1.853,2.644,2.644,0,0,1,2.23-.623s.825.217-.435.956a9.043,9.043,0,0,0-.739,2.259s-.212,1.255-1.228,1.389a2.91,2.91,0,0,1,1.054-2.692A10.481,10.481,0,0,0,135.394,24.671Zm-4.11-5.453a2.87,2.87,0,0,1,1.185-1.845s.391-.391.826.7a13,13,0,0,0,1.129,2.476,7.148,7.148,0,0,1,.413,4.491c-.131.089-.268.185-.413.288a.972.972,0,0,0-.516-.176A6.917,6.917,0,0,0,131.284,19.218Zm4.4,13.665s.652.173-.435-1.781c0,0-1.911-3.345-2.52-4.084,0,0-.13-.391.7-.3,0,0,.478.173.348-.7,0,0,.435-.261.565.174a36.37,36.37,0,0,0,2.694,5.083s.608.435.825-.564c0,0,.26-.956.956-.174a.81.81,0,0,1,.043.394c-.014-.013-.029-.025-.043-.038l-.491.491c.037.037.077.067.115.1l-.015.009s-1.318,2.185,1.1,5.15a10.03,10.03,0,0,0-.38,1.095,7.064,7.064,0,0,0-1.024-.84c-1.682-3.236-3.245-3.876-3.916-3.993v-.021a1.9,1.9,0,0,0-.117-.651,1.383,1.383,0,0,1,1.594.651Zm-.912,5A16.453,16.453,0,0,1,136.39,41.1a5.146,5.146,0,0,0-.3.7,15.481,15.481,0,0,0-1.829-1.348,4.4,4.4,0,0,1-.572-1.881,19.981,19.981,0,0,0,.174-2.737c1.385.231,2.919,1.987,3.579,2.821a5.943,5.943,0,0,1-.364,1.437c-.019.022-.035.043-.053.065-.492-.749-1.858-2.754-2.6-3.106C134.424,37.054,134.381,37.141,134.772,37.879ZM132.3,34.1a1.14,1.14,0,1,1,1.1-.7A1.218,1.218,0,0,1,132.3,34.1Zm.939.49a1.917,1.917,0,0,0,.8-.921l.012-.03c1.468-.134,2.73,2.087,3.25,3.159a.873.873,0,0,0-.05.517,1.542,1.542,0,0,1,.156.413A11.813,11.813,0,0,0,133.234,34.59ZM132.6,46.481a21.817,21.817,0,0,0-1.564-2c-1.39-1.694-.492-1.651-.492-1.651a3.036,3.036,0,0,1,1.843.116,13.82,13.82,0,0,1,.938,2.723,11.756,11.756,0,0,0,.784,2.088A8.3,8.3,0,0,1,132.6,46.481Zm1.659,5.977a1.476,1.476,0,1,1,.991-1.394,1.492,1.492,0,0,1-.991,1.394Zm-.934-9.164s-1.1-2.722-1.622-3.069c0,0-.116-.812,1.158.115,0,0,7.091,3.934,5.941,8.225-3.64-5.05-4.84-5.907-4.84-5.907a21.2,21.2,0,0,1,3.5,6.978C136.51,49.346,134.022,48.132,133.324,43.295Zm4.634,8.284a4.289,4.289,0,0,0-1.805-1.047,2.15,2.15,0,0,0-.159-.459,2.382,2.382,0,0,0,1.684.312C137.875,51.123,137.958,51.579,137.958,51.579Zm7.241,9.978c.739-.608.7,0,.7,0a8.9,8.9,0,0,1-2.847,5.341q-.679-.007-1.279.04c.37-.4,1.653-1.845,1.578-2.614,0,0-.2-.174-.869.608a16.628,16.628,0,0,1,.334-2.616C143.841,62.619,145.2,61.557,145.2,61.557Zm-2.027-2.824s.55.088-.058,1.159a15.912,15.912,0,0,0-1.274,4.866,4.366,4.366,0,0,1-1.044,2.294,9.432,9.432,0,0,0-2.066.558,11.209,11.209,0,0,0,.981-3.649c.281-.761.712-1.7,1.186-1.926,0,0-.036-.644-1.15.7A10.414,10.414,0,0,0,139.6,61.3a6.111,6.111,0,0,1,.875-1.113h.025l0-.029a5.016,5.016,0,0,1,2.664-1.421Zm-.591-4.186c0,.027,0,.054,0,.08a2.16,2.16,0,0,0,.152.792,5.174,5.174,0,0,0-2.9,4.452c-.149.139-.3.287-.44.448a10.2,10.2,0,0,0-1.165-2.727,5.056,5.056,0,0,0-.192-3.507,3.9,3.9,0,0,0-2.2-1.87,2.156,2.156,0,0,0,.372-1.138,6.576,6.576,0,0,1,2.1,1.775c.174.7.579.754.579.754a20.809,20.809,0,0,0-.812-4.924c.521,1.043.927,2.144.927,2.144.7-.174.58-4.345.58-4.345a13.812,13.812,0,0,0,.811,4.866c.406-.173.985-1.158.985-1.158-1.158,5.214-.7,5.5-.7,5.5A4.988,4.988,0,0,1,142.581,54.547Zm-1.4-5.253a.5.5,0,0,1-.441.083c-1.158-7.067-1.97-7.182-1.97-7.182a10.5,10.5,0,0,1,.523,4.456,9.277,9.277,0,0,0-2.484-4.174,1.389,1.389,0,0,1,.223-.861c.912-.739.782-3.041.782-3.041-.174-1.434.434-.825.434-.825C142.788,42.134,141.505,48.075,141.18,49.294Zm3.788-4.511a6.237,6.237,0,0,1,2.1-.04s.869.3-.478,1.043a25.407,25.407,0,0,0-1.607,2.824s-1.324,2.2-3.059,2.185c0-.368-.014-.717-.032-1.035A9.508,9.508,0,0,0,144.968,44.783ZM67.908,80.435a3.843,3.843,0,0,0-.857-.024,2.916,2.916,0,0,1-2.187.411c-.441.121-.736.221-.736.221-2.172,1.39-.261,1.912-.261,1.912a5.951,5.951,0,0,1,2.042.7c1.173,1.216,1.564.608,1.564.608-.043-1-2.128-1.651-2.128-1.651-1.434-.26-1.217-.478-1.217-.478a5.314,5.314,0,0,1,3.823-.781C69.125,80.825,67.908,80.435,67.908,80.435Zm72.511-10.8s-.651-1-3.649,2.216c0,0-.13.739.3.912A17.338,17.338,0,0,1,140.419,69.638Zm-11.3-8.211c-.608-.565,0,.521,0,.521,1.043,1.129.7,4.3.7,4.3,0,.869.565.565.565.565,0-1.521.391-.782.391-.782-.087,1.26.391,1.347.391,1.347.347-.043.087-1.608.087-1.608C130.079,61.47,129.124,61.427,129.124,61.427Zm4.054,20.962c.7-.086.045-.477.045-.477-1.273-.131-.966.477-.966.477A1.481,1.481,0,0,1,133.178,82.389Zm2.678-1.346s-.271-.091-.681-.2a3.225,3.225,0,0,1-2.428-.437,3.632,3.632,0,0,0-.71.033s-1.23.39-.045.912a5.418,5.418,0,0,1,3.864.781s.22.217-1.228.478c0,0-2.109.652-2.152,1.651,0,0,.395.608,1.58-.608a6.057,6.057,0,0,1,2.064-.7S138.052,82.433,135.856,81.043ZM74.691,13.38c0-.665-.089-2.332-.917-2.85,0,0-.3-.087-.609.652a10.117,10.117,0,0,1-2.031,2.2h1.194A4.818,4.818,0,0,0,73.6,11.92s.7.408.3,1.46ZM66.736,81.912s-.652.391.043.477a1.453,1.453,0,0,1,.913,0S68,81.781,66.736,81.912ZM95.832,9.26a7.439,7.439,0,0,0,1.1-.946c1.129-1.216.087-1.347.087-1.347a2.66,2.66,0,0,1-1.607-.13,6.948,6.948,0,0,0-5-1v-.3c-.131-2.172-1.13-.956-1.13-.956-.13.7-1,.826-1,.826-2.607.782-3.171,2.3-3.171,2.3a2.776,2.776,0,0,1-1.434,1.52,9.678,9.678,0,0,0-3.214,1.151,1.78,1.78,0,1,0-2.419.824,7.075,7.075,0,0,1-2.341,2.178h1.133c.661-.344,1.754-1.049,1.876-1.988.047,0,.094.007.142.007a1.772,1.772,0,0,0,1.138-.412c-.1.549.6.108.6.108.739-.434,1.738-.956,1.738-.956C84.549,9.791,85.026,9.1,85.026,9.1a4.332,4.332,0,0,1,2.52-2.781,2.147,2.147,0,0,0,1.217-.3c.826-.912,1-.435,1-.435.391.435-.392.869-.392.869A20.084,20.084,0,0,0,87.5,7.706c-.955,1-.608.956-.608.956,4-3.389,7.429-1.738,7.429-1.738.521.391,1.173.782,1.173.782.912,0,.739.348.739.348A2.155,2.155,0,0,1,94.7,9.17c-.123,0-.248.013-.377.027l0-.014s-.174-1.216-3.215-1.347a8.809,8.809,0,0,0-3.856,1.415,3.119,3.119,0,0,0-1.532.323s5.822.174,3.433.7a8.533,8.533,0,0,0-2.39.258c-.077-.046-.1-.061,0,0a2.684,2.684,0,0,0-.974.481,9.771,9.771,0,0,0-1.674.3,3.557,3.557,0,0,1-1.651-.043s-.912.565.7.521c0,0,1.695.217.434.565,0,0-3.6-.512-4.682,1.025h1.23a4.867,4.867,0,0,1,3.339-.493l-.06.336.032.157h.7l-.032-.157.053-.295a.826.826,0,0,0,.648-.616l.255-.045a.957.957,0,0,1,.956.956L86,13.38h.7l.027-.157a1.651,1.651,0,0,0-.9-1.47,3.188,3.188,0,0,1,2.512,1.34,1.9,1.9,0,0,0,.272.287h1.3a15.019,15.019,0,0,1-1.886-1.293,3.985,3.985,0,0,0,2.472.062,8.3,8.3,0,0,0,3.071.266,1.6,1.6,0,0,1,.773.965h.932a1.32,1.32,0,0,0-.907-1.134,4.026,4.026,0,0,0,.792-.326s2.607-.521,3.433.435c0,0,1.129.391.521-.869A5.47,5.47,0,0,0,95.832,9.26ZM78.857,10.7a1.086,1.086,0,1,1,1.086-1.087A1.088,1.088,0,0,1,78.857,10.7Zm8.733.309a4.59,4.59,0,0,1,1.737-.4s1.608-.086,1.912-1.173a6.577,6.577,0,0,0-2.52-.131L88.61,9.3a4.617,4.617,0,0,1,3.281-1.075s2.824.782,1.477,1.433a13.48,13.48,0,0,0-2.129,1.39A6.947,6.947,0,0,1,87.59,11.013Zm6.039.864a4.079,4.079,0,0,1-2.2-.177,4.469,4.469,0,0,0,.552-.431,6.722,6.722,0,0,1,1.877-1.487c.861-.1,3.055-.179,3.988,1.444A10,10,0,0,0,93.629,11.877Zm27.284.391c-3.3-1.174-3.649-3.085-3.649-3.085a1.341,1.341,0,0,0-.074-.428l.206-.268a1.74,1.74,0,1,0-2.838.163,5.144,5.144,0,0,1-2.768-.945,6.33,6.33,0,0,0-3.736-2.824,6.036,6.036,0,0,1-3.128-1.13c-1.077-1.149-1.145-.073-1.137.335a1.6,1.6,0,0,1-1.9-.335s-1-.435-.652,1.086a4.66,4.66,0,0,0,.493,1.414,13.117,13.117,0,0,1-3.013-.327c-1.651-.13.608,1.781.608,1.781.2.213.411.408.619.594-.908.156-2.707.546-1.271,1.014a5.481,5.481,0,0,1,2.954,2.172s1.521,1.3,2.781.912c0,0-.436.184-.41.982h.7a3.951,3.951,0,0,1,.97-1.373s.434-.261-1-.174a5.482,5.482,0,0,1-4.04-2.042,3.156,3.156,0,0,0-1.347-.608s-.388-.48,1.252-.393A9.408,9.408,0,0,0,107.35,10.7c-.592.419-1.455,1.222-.948,2.086,0,0,1.824-2.085,3.649-2.129,0,0,.225-.549-1.332-.393a4.154,4.154,0,0,1,2.2-.519,2.231,2.231,0,0,0-.261-.862c0-.031,0-.051,0-.051-1.24-2.367-4.589-2.914-5.473-3.019a2.227,2.227,0,0,1-.609-.457c-.869-1.26.087-1.13.087-1.13a5.379,5.379,0,0,0,2.346,1,5.746,5.746,0,0,1,3.258,1.737,4.815,4.815,0,0,0,2.694,1.955,5.574,5.574,0,0,1,1.695.826c1.13,1.086,1-.174,1-.174.087-.782,1.086-.261,1.086-.261.13,1.477,2.476,2.694,2.476,2.694a7.468,7.468,0,0,1,1.959,1.373h.762a2.775,2.775,0,0,0-1.026-1.112Zm-12.021-4.3c-4.224-.759-4.185.74-4.185.74a6.068,6.068,0,0,1,4.65.345c-3.875,2.936-8.647-.953-8.647-.953-2.085-1.086-1.3-1.39-1.3-1.39a5.732,5.732,0,0,0,3.171.087C106.387,5.88,108.188,7.179,108.892,7.965Zm-4.514-2.213a5.531,5.531,0,0,0-1.433.348A1.682,1.682,0,0,1,101.8,4.577s-.087-.652.478.174a3.6,3.6,0,0,0,1.614.12A2.3,2.3,0,0,0,104.377,5.752ZM116.8,8.122l-.115.149a2.394,2.394,0,0,0-1.39.141,1.041,1.041,0,1,1,1.5-.291Zm-44.854,50.2a5.753,5.753,0,0,0-1.786,1.167c-.432-.266-1.465-1.188-.908-3.731,0,0-.563-1.964-2.844,2.2-.423-.84-1.47-2.7-2.413-2.6,0,0-.435-.347-.3.869,0,0,.3,2.351-.543,2.943a3.628,3.628,0,0,1-.022-1.336s-.033-1.244-.753-.8a4.106,4.106,0,0,1,.243-2.58,3.361,3.361,0,0,1,2.114-1.631,2.173,2.173,0,1,0,.45-3.776c.039-.052.075-.106.113-.159a6.822,6.822,0,0,0,3.221-2.564,7.761,7.761,0,0,1,1.434-2.216h0c-.047-.256-.089-.516-.132-.774q-.019-.114-.038-.228c-.032-.2-.063-.4-.093-.6-.013-.089-.029-.176-.041-.265a7.119,7.119,0,0,0-1.7.1c.312-.687.56-1.182.56-1.182,1.39-2.664-.869-1.68-.869-1.68-.3.146-.577.295-.85.445a12.3,12.3,0,0,0-.048-2.632s-.433-1.785.564-2.485a1.892,1.892,0,0,0,1.822-.548V31.636a1.905,1.905,0,0,0-2.95.215,5.4,5.4,0,0,0-1.173.1,10.169,10.169,0,0,1,1.441-2.576,3.209,3.209,0,0,1,2.683.611V29.2a3.3,3.3,0,0,0-2.29-.358c.178-.231.3-.373.3-.373.411-.859,1.652-.307,1.995-.135v-.5a1.777,1.777,0,0,0-.344-.325c.114-.029.23-.066.344-.106V26.7a4.142,4.142,0,0,1-1.024.255,4.378,4.378,0,0,1,1.024-2.371v-1.5A14.1,14.1,0,0,0,67,25.431a2.01,2.01,0,0,0-.2-.094,6.3,6.3,0,0,1,2.322-5.224V18.524a4.669,4.669,0,0,0-.557-1.068,4.049,4.049,0,0,1,.557-.731v-.9a3.509,3.509,0,0,0-.967,1.08,9,9,0,0,0-.9-.947c-1.3-.608-1.086.261-1.086.261a3.645,3.645,0,0,1-.391,2.694,5.228,5.228,0,0,0-1.206,3.2,3.621,3.621,0,0,0-2.009-.555c-2.563.391-.956,1.26-.956,1.26A3.016,3.016,0,0,1,62.7,25.04a2.65,2.65,0,0,0,1.92,2.308,8.153,8.153,0,0,1-1.833,3.166,3.8,3.8,0,0,0-.806-1.033,2.13,2.13,0,1,0-1.009,2.228,3.9,3.9,0,0,1-.772,4.365,1.524,1.524,0,0,0-.855-.815c-.054-.975-.414-3.8-2.771-4.876,0,0-1.825-.086-.391,1.694,0,0,.565,2.26-.217,3.3a3.236,3.236,0,0,0-.364,1.562,3.91,3.91,0,0,0-.592-.259s-.739-.087-.217,1.434A14.109,14.109,0,0,1,54.7,41.9a9.779,9.779,0,0,0,.165,2.056,2.518,2.518,0,0,0-1.425-.057c-2.259.478-1.52,1.52-1.52,1.52a4.4,4.4,0,0,1,1.955,2.259c1.214,3.273,3.547,3.526,4.235,3.527a11.9,11.9,0,0,0,.428,3.221,3.4,3.4,0,0,0-1.567-.616,2.175,2.175,0,1,0-.3,2.157A4.292,4.292,0,0,1,59.412,59.3a6.93,6.93,0,0,0-2.8-1.156c-2-.478.261,3,.261,3,.062.174.119.353.171.534-.355.077-1.215.1-2.3-1.055,0,0-1.173-1.216-.956,1.217,0,0-.122,1.474,2.055,5.175-.271.021-.55.048-.838.082,0,0-1.912,1.173.13,1.39a6.268,6.268,0,0,1,3.693,3.736A9.15,9.15,0,0,0,61.8,74.606l.566-.533a5.268,5.268,0,0,1-3.491-3.241,14.479,14.479,0,0,0-3.519-3.084s3.823-1.651,8.776,2.781c0,0,.912.608.434-.609,0,0-1.3-2.042-.956-3.084,0,0,.782.478,1.651,3.215,0,0,0,.435.348.131a7.54,7.54,0,0,0-1.564-4.128,4.847,4.847,0,0,1-.913-3.649s-.521-.565-.782.739c0,0,0,3.953,1.434,6.343a4.667,4.667,0,0,0-1.765-1.478,11.327,11.327,0,0,1-.147-9.167s.652-1.737.869.348a7.692,7.692,0,0,0,2.52,4.779A6.783,6.783,0,0,1,66.779,68.4s.956.739.869-1.955c0,0,1.173-6.3,4.04-7.516a67.573,67.573,0,0,1,.055,7.707,3.162,3.162,0,0,1,.566.038c.056-1.742.251-8.888-.36-8.353ZM54.962,56.1a1.477,1.477,0,1,1,1.477-1.477A1.478,1.478,0,0,1,54.962,56.1ZM66,49.588a1.477,1.477,0,1,1-1.477,1.477A1.478,1.478,0,0,1,66,49.588ZM69.487,42.9s.9-.043-.493,1.651a21.784,21.784,0,0,0-1.564,2,8.289,8.289,0,0,1-1.509,1.277,11.755,11.755,0,0,0,.785-2.089,13.8,13.8,0,0,1,.937-2.722A3.038,3.038,0,0,1,69.487,42.9ZM67.17,40.406c1.274-.927,1.158-.115,1.158-.115-.521.347-1.622,3.07-1.622,3.07-.7,4.837-3.187,6.051-4.141,6.342a21.216,21.216,0,0,1,3.5-6.979s-1.2.858-4.839,5.907C60.08,44.338,67.17,40.406,67.17,40.406Zm-3.135,9.732a2.161,2.161,0,0,0-.159.459,4.276,4.276,0,0,0-1.8,1.046s.083-.456.281-1.194A2.379,2.379,0,0,0,64.036,50.138Zm1.57-13.019c-.739.352-2.105,2.357-2.6,3.106-.018-.022-.034-.043-.053-.065a5.931,5.931,0,0,1-.364-1.436c.659-.834,2.194-2.59,3.579-2.821a19.981,19.981,0,0,0,.174,2.737,4.4,4.4,0,0,1-.572,1.882,15.478,15.478,0,0,0-1.828,1.348,5.144,5.144,0,0,0-.3-.7,16.443,16.443,0,0,1,1.618-3.224C65.649,37.206,65.606,37.119,65.606,37.119Zm2.129-5.388a1.217,1.217,0,1,1-1.217,1.217A1.218,1.218,0,0,1,67.735,31.731ZM65.98,33.7a1.923,1.923,0,0,0,.857.931,11.873,11.873,0,0,0-4.211,3.158,1.537,1.537,0,0,1,.156-.414.874.874,0,0,0-.05-.517C63.251,35.791,64.513,33.571,65.98,33.7Zm-.374-13.094a13.01,13.01,0,0,0,1.13-2.476c.435-1.086.825-.7.825-.7a2.871,2.871,0,0,1,1.185,1.845,6.917,6.917,0,0,0-2.624,5.929.974.974,0,0,0-.516.177q-.217-.155-.413-.288A7.149,7.149,0,0,1,65.606,20.609Zm-2.129,4.866a9.04,9.04,0,0,0-.738-2.259c-1.26-.739-.435-.956-.435-.956a2.639,2.639,0,0,1,2.23.623,13.4,13.4,0,0,0,.1,1.852,10.5,10.5,0,0,0-.985-.564A2.91,2.91,0,0,1,64.7,26.863C63.689,26.729,63.477,25.475,63.477,25.475Zm-2.8,5.594a1.432,1.432,0,1,1,.6-1.553A1.12,1.12,0,0,0,60.676,31.069Zm.933.488a.745.745,0,0,1-.391-.956c.7-.782.956.174.956.174.217,1,.825.565.825.565a36.337,36.337,0,0,0,2.694-5.083c.13-.434.565-.174.565-.174-.13.869.347.7.347.7.825-.087.7.3.7.3-.609.738-2.52,4.084-2.52,4.084-1.086,1.955-.435,1.781-.435,1.781a1.383,1.383,0,0,1,1.594-.65,1.9,1.9,0,0,0-.116.65l0,.021c-.671.117-2.234.756-3.917,3.993a7.115,7.115,0,0,0-1.023.841,10.032,10.032,0,0,0-.38-1.1c2.422-2.965,1.1-5.15,1.1-5.15Zm-1.26,6.813a9.906,9.906,0,0,0-1.4,2.3,13.259,13.259,0,0,0-1.321-1.962c.242-.73.88-2.472,1.463-2.506C59.089,36.206,60.083,36.092,60.349,38.37Zm-2.911-6.553A3.579,3.579,0,0,1,58.671,35.5a2.353,2.353,0,0,0-.364.445,24.364,24.364,0,0,0-1.155,2.229,7.687,7.687,0,0,0-.7-.652,5.842,5.842,0,0,1,.2-2.4s.912-2.042-.087-3.259C56.569,31.861,55.874,30.732,57.438,31.818Zm-2.3,9.819s.825-2.738.044-3.607c0,0-.174-.739.825.261a10.379,10.379,0,0,1,2.522,3.48,12.988,12.988,0,0,0-.522,2.3,7.832,7.832,0,0,0-1.217-2.7,5.711,5.711,0,0,1,.478,2.259,4.5,4.5,0,0,0,.616,1.906,17.28,17.28,0,0,0,.188,3.139A8.5,8.5,0,0,1,55.135,41.637Zm2.972,9.223c-1.734.02-3.059-2.185-3.059-2.185a25.306,25.306,0,0,0-1.608-2.824c-1.347-.739-.478-1.043-.478-1.043a6.238,6.238,0,0,1,2.1.04,9.511,9.511,0,0,0,3.077,4.977C58.121,50.144,58.109,50.493,58.107,50.86Zm3.675-13.047s.608-.608.434.825c0,0-.13,2.3.782,3.041a1.388,1.388,0,0,1,.223.862,9.276,9.276,0,0,0-2.484,4.172,10.492,10.492,0,0,1,.523-4.455s-.811.116-1.97,7.183a.5.5,0,0,1-.442-.084C58.523,48.136,57.244,42.2,61.783,37.814Zm-4.8,29.15a8.9,8.9,0,0,1-2.847-5.341s-.043-.608.7,0c0,0,1.359,1.062,2.388.76A16.647,16.647,0,0,1,57.554,65c-.666-.783-.869-.609-.869-.609-.074.771,1.211,2.218,1.58,2.616Q57.665,66.957,56.983,66.964Zm4.317.712a9.452,9.452,0,0,0-2.064-.558,4.36,4.36,0,0,1-1.044-2.3,15.9,15.9,0,0,0-1.275-4.866c-.608-1.071-.058-1.158-.058-1.158a5.008,5.008,0,0,1,2.663,1.419l0,.029h.026a6.124,6.124,0,0,1,.876,1.114,10.433,10.433,0,0,0-.143,1.444c-1.114-1.347-1.15-.7-1.15-.7.474.224.905,1.165,1.186,1.926a11.2,11.2,0,0,0,.982,3.65ZM62,54.151a5.058,5.058,0,0,0-.192,3.506,10.212,10.212,0,0,0-1.165,2.727c-.144-.161-.291-.309-.44-.448a5.158,5.158,0,0,0-3.192-4.583,2.155,2.155,0,0,0,.127-.726c0-.039,0-.077-.006-.115a5.121,5.121,0,0,1,2.222,1.245s.464-.291-.7-5.5c0,0,.579.986.985,1.159a13.8,13.8,0,0,0,.811-4.866s-.116,4.171.579,4.345c0,0,.405-1.1.927-2.144a20.824,20.824,0,0,0-.811,4.925s.405-.059.579-.754a6.573,6.573,0,0,1,2.1-1.775,2.159,2.159,0,0,0,.371,1.139A3.891,3.891,0,0,0,62,54.151Zm3.151,8.689c-.276-.328-.575-.681-.888-1.044a8.186,8.186,0,0,1-.711-1.331,18.666,18.666,0,0,0,.624-4.056s0-.825.739.435a4.28,4.28,0,0,1,.865,2.359,9.378,9.378,0,0,0-.629,3.639Zm2.631.389s-.449-2.52.319-3.563c0,0-1.043-.173-1.39,5.069,0,0-.432-.54-1.086-1.327.071-1.447.487-5.8,2.939-6.956,0,0,.348-.478.13,1.433a10.866,10.866,0,0,0,.631,2.5A9.6,9.6,0,0,0,67.778,63.23Zm57.609-51.4a6.78,6.78,0,0,1-2.085-1.3c-.7-.956-1.13-.7-1.13-.7-.956.261-.477,1.694-.477,1.694a3.293,3.293,0,0,1,.649,1.851h.489a5.928,5.928,0,0,0-.269-1.2c-.652-1.391-.043-1.477-.043-1.477.174.39.782.565.782.565a6.332,6.332,0,0,1,2.973,2.111h.752A5.778,5.778,0,0,0,125.387,11.833Z"/><path id="path87" d="M137.675,74.158,131.319,68.1c-.876-.941-3.065-2.313-4.985-.662a1.948,1.948,0,0,0-.614,1.25c0,.027,0,.054,0,.083a1.834,1.834,0,0,0,.544,1.251c.053.039.1.076.151.115a5.932,5.932,0,0,0-4.763,1.507,2.6,2.6,0,0,0-1.024,2.2,2.1,2.1,0,0,0,1.087,1.423l.111.056.122-.029a.7.7,0,0,1,.572.063,1.282,1.282,0,0,1,.514.764.268.268,0,0,1-.008.064c-.056.233-.44.4-.645.461a4.19,4.19,0,0,0-2.637.6,33.5,33.5,0,0,1-18.657,6.523c-.59.354-.923.534-.923.534l-.221.117-.221-.117s-.341-.184-.944-.547a34.722,34.722,0,0,1-18.549-6.655,3.881,3.881,0,0,0-2.758-.543c-.148-.036-.507-.166-.583-.392a.288.288,0,0,1-.014-.093,1.05,1.05,0,0,1,.3-.592c.011-.015.2-.22.841-.1l.05.01.051-.006a1.627,1.627,0,0,0,1.248-.825c.274-.6.07-1.4-.608-2.369a6.7,6.7,0,0,0-5.023-2.144,2.825,2.825,0,0,0,.283-1.2,4.528,4.528,0,0,0-.118-1.022l-.011-.043-.021-.039c-1.1-2-3.935-.725-4.055-.669l-.052.024L61.62,74.774l-.027.049c-.016.032-1.614,3.08,1.785,5.49.126.071,2.349,1.281,3.905-.08l1.231-1.485A1.669,1.669,0,0,1,69.82,80.1l-1.438,1.653-.021.043a4.7,4.7,0,0,0-.388,1.844,3.6,3.6,0,0,0,.325,1.528,4.556,4.556,0,0,0,3.214,2.3,8.107,8.107,0,0,1,3.154,1.875c.278.207,25.136,17.981,52.224-1.144l.035-.024.03-.036a3.047,3.047,0,0,1,2.208-.745h.046l.045-.015a4.358,4.358,0,0,0,2.521-2.167,3.314,3.314,0,0,0,.276-1.343,5.1,5.1,0,0,0-.558-2.186l-.019-.039-.029-.034c-.077-.092-.744-.883-1.63-1.92a1.834,1.834,0,0,1,1.357-.964l.98,1.239a3.183,3.183,0,0,0,4.555-.011,5.3,5.3,0,0,0,1.948-3.245,3.262,3.262,0,0,0-.982-2.542ZM69,78.16l4.461-5.382c.13-.154,1.348-1.473,3.159.045a1.358,1.358,0,0,1,.373.4,1.221,1.221,0,0,1-.509.082l-.061,0-.056.022a5.358,5.358,0,0,0-1.748,1.245L70.347,79.49A2.364,2.364,0,0,0,69,78.16Zm60.34.966c-1.682-1.958-3.856-4.437-4.492-4.933a3.975,3.975,0,0,0-1.214-.648l-.046-.016-.051,0a1.66,1.66,0,0,1-.828-.221c.017-.05.129-.279.9-.74a2.727,2.727,0,0,1,3.116.53l3.969,5.017a2.466,2.466,0,0,0-1.354,1.014Zm8.624-2.485a4.713,4.713,0,0,1-1.711,2.779,2.542,2.542,0,0,1-3.591.064l-5.439-6.868a3.492,3.492,0,0,0-3.969-.649c-.593.354-1.25.82-1.25,1.352a.643.643,0,0,0,.021.159c.146.595,1.046.711,1.4.736a3.437,3.437,0,0,1,.976.516c.592.461,2.743,2.906,4.6,5.077l0,.015.022.006c.688.8,1.337,1.567,1.85,2.178a4.4,4.4,0,0,1,.478,1.855,2.62,2.62,0,0,1-.213,1.059A3.7,3.7,0,0,1,129.06,86.7a3.706,3.706,0,0,0-2.579.926c-26.667,18.82-51.128,1.35-51.372,1.17a8.524,8.524,0,0,0-3.425-2.012,3.91,3.91,0,0,1-2.753-1.912,2.9,2.9,0,0,1-.26-1.233,4.025,4.025,0,0,1,.3-1.516c.073-.083,6.162-7.083,6.162-7.083A4.619,4.619,0,0,1,76.585,74c.428-.02.967-.107,1.106-.548a.6.6,0,0,0,.027-.181c0-.452-.5-.863-.665-.991a2.809,2.809,0,0,0-4.124.055l-6.142,7.416c-1.148,1-3.021-.013-3.04-.024a3.806,3.806,0,0,1-1.863-3.14,3.222,3.222,0,0,1,.3-1.387c.093-.089,7.868-7.414,7.959-7.5.218-.093,2.318-.953,3.086.364a3.662,3.662,0,0,1,.088.794,1.821,1.821,0,0,1-.31,1.137.931.931,0,0,1-.342.244c-.016.006-.031,0-.047.008l.007.02a1.42,1.42,0,0,1-.451.09,1.119,1.119,0,0,1-.977-.882c-.246-.81.391-.652.391-.652l.03.015c.449-.3-.406-.508-.406-.508-.9.044-.985,1.058-.985,1.058a2.105,2.105,0,0,0,1.662,1.648v.016c.041,0,.078,0,.118,0h0a2.231,2.231,0,0,0,.926-.164c2.829-.91,5.25,1.716,5.275,1.743A2.691,2.691,0,0,1,78.782,74a.669.669,0,0,1-.053.276.9.9,0,0,1-.669.424c-1.038-.167-1.408.316-1.446.374a1.37,1.37,0,0,0-.382,1.328,1.575,1.575,0,0,0,1.119.856l.052.011.053,0a3.381,3.381,0,0,1,2.349.4c21.8,15.2,40.177.3,40.36.148a3.6,3.6,0,0,1,2.228-.457l.064.006.061-.015c.1-.026,1.007-.272,1.183-.983.118-.473-.13-.988-.731-1.524a1.344,1.344,0,0,0-1.022-.228,1.327,1.327,0,0,1-.636-.863,1.081,1.081,0,0,1-.009-.134,2.263,2.263,0,0,1,.85-1.479c.085-.095,1.609-1.768,4.98-1.236.879.241,1.188.007,1.188.007,2.715-1.8.543-2.563.543-2.563-1.238.109-.521.513-.521.513.464-.087.434.464.434.464.126,1.091-.643,1.1-1.078,1.026a4.164,4.164,0,0,0-.979-.832,1.121,1.121,0,0,1-.305-.774,1.253,1.253,0,0,1,.379-.769c1.885-1.62,3.944.537,4.033.629l6.358,6.054a2.584,2.584,0,0,1,.782,1.995Z"/><path id="path89" class="cls-3" d="M119.687,77.3v-.017l-.434.345c.215-.157.361-.27.434-.327ZM139.354,31a1.43,1.43,0,0,0,.791.242c.042,0,.083,0,.124-.006a1.422,1.422,0,0,0,.571-.348,1.434,1.434,0,0,0-1.014-2.448c-.042,0-.084,0-.125.006a1.436,1.436,0,0,0-.939,1A1.12,1.12,0,0,1,139.354,31Zm-2.323.27a36.37,36.37,0,0,1-2.694-5.083c-.13-.435-.565-.174-.565-.174.13.869-.348.7-.348.7-.825-.087-.7.3-.7.3.608.739,2.52,4.084,2.52,4.084,1.086,1.955.435,1.781.435,1.781a1.383,1.383,0,0,0-1.594-.651,1.9,1.9,0,0,1,.117.651V32.9c.671.118,2.234.758,3.916,3.993a7.064,7.064,0,0,1,1.024.84,10.03,10.03,0,0,1,.38-1.095c-2.422-2.965-1.1-5.15-1.1-5.15l.015-.009c-.038-.033-.079-.064-.115-.1l.491-.491c.014.013.029.026.043.038a.81.81,0,0,0-.043-.394c-.7-.782-.956.174-.956.174-.218,1-.825.564-.825.564Zm4.692,4.606a24.387,24.387,0,0,1,1.155,2.229,7.664,7.664,0,0,1,.7-.652,5.841,5.841,0,0,0-.2-2.4s-.912-2.042.087-3.259c0,0,.7-1.129-.869-.043a3.579,3.579,0,0,0-1.233,3.683A2.334,2.334,0,0,1,141.723,35.881Zm-.782.26s-.993-.115-1.26,2.164a9.889,9.889,0,0,1,1.4,2.3,13.272,13.272,0,0,1,1.321-1.962C142.162,37.918,141.524,36.176,140.941,36.141Zm-7.907-10.775a2.145,2.145,0,0,1,.2-.094,6.247,6.247,0,0,0-2.466-5.328V22.9A13.551,13.551,0,0,1,133.034,25.367Zm-1.568-7.975a3.856,3.856,0,0,0-.7-.872v2.35l.031.018a3.963,3.963,0,0,1,.67-1.5Zm6.347,21.182s.13,2.3-.782,3.041a1.389,1.389,0,0,0-.223.861,9.277,9.277,0,0,1,2.484,4.174,10.5,10.5,0,0,0-.523-4.456s.812.115,1.97,7.182a.5.5,0,0,0,.441-.083c.326-1.219,1.608-7.16-2.933-11.545C138.247,37.749,137.639,37.141,137.813,38.575Zm-3.9-13.427a.972.972,0,0,1,.516.176c.145-.1.282-.2.413-.288a7.148,7.148,0,0,0-.413-4.491,13,13,0,0,1-1.129-2.476c-.435-1.086-.826-.7-.826-.7a2.87,2.87,0,0,0-1.185,1.845A6.917,6.917,0,0,1,133.908,25.147Zm1.418,1.652c1.015-.134,1.228-1.389,1.228-1.389a9.043,9.043,0,0,1,.739-2.259c1.26-.738.435-.956.435-.956a2.644,2.644,0,0,0-2.23.623,13.4,13.4,0,0,1-.1,1.853,10.481,10.481,0,0,1,.985-.564A2.91,2.91,0,0,0,135.325,26.8Zm4.386,37.162a11.209,11.209,0,0,1-.981,3.649,9.432,9.432,0,0,1,2.066-.558,4.366,4.366,0,0,0,1.044-2.294,15.912,15.912,0,0,1,1.274-4.866c.608-1.071.058-1.159.058-1.159a5.016,5.016,0,0,0-2.664,1.421l0,.029h-.025a6.111,6.111,0,0,0-.875,1.113,10.414,10.414,0,0,1,.143,1.442c1.114-1.347,1.15-.7,1.15-.7-.474.224-.9,1.165-1.186,1.926Zm-8.947-39.642v2.253a4.07,4.07,0,0,0,1.17.316A4.778,4.778,0,0,0,130.764,24.318Zm9.916,31.374s-.463-.29.7-5.5c0,0-.579.985-.985,1.158a13.812,13.812,0,0,1-.811-4.866s.115,4.171-.58,4.345c0,0-.406-1.1-.927-2.144a20.809,20.809,0,0,1,.812,4.924s-.406-.058-.579-.754a6.576,6.576,0,0,0-2.1-1.775,2.156,2.156,0,0,1-.372,1.138,3.9,3.9,0,0,1,2.2,1.87,5.056,5.056,0,0,1,.192,3.507,10.2,10.2,0,0,1,1.165,2.727c.144-.161.291-.309.44-.448a5.174,5.174,0,0,1,2.9-4.452,2.16,2.16,0,0,1-.152-.792c0-.027,0-.054,0-.08A4.988,4.988,0,0,0,140.68,55.692Zm-4.91,6.038a8.152,8.152,0,0,0,.711-1.331,18.649,18.649,0,0,1-.624-4.055s0-.825-.739.435a4.273,4.273,0,0,0-.866,2.358,9.379,9.379,0,0,1,.63,3.639C135.159,62.447,135.457,62.094,135.771,61.73Zm-2.447,2.941s.432-.54,1.085-1.328c-.07-1.447-.486-5.8-2.939-6.956,0,0-.348-.478-.13,1.434a10.891,10.891,0,0,1-.631,2.5,9.6,9.6,0,0,1,1.543,2.84s.449-2.52-.318-3.563C131.934,59.6,132.977,59.429,133.324,64.672Zm8.7-20.663a7.84,7.84,0,0,1,1.217-2.7,5.71,5.71,0,0,0-.478,2.259,4.5,4.5,0,0,1-.616,1.906,17.3,17.3,0,0,1-.188,3.139,8.5,8.5,0,0,0,2.933-7.044s-.826-2.737-.043-3.606c0,0,.174-.739-.825.261a10.385,10.385,0,0,0-2.521,3.48A12.963,12.963,0,0,1,142.026,44.008Zm-5.005-3.848c.018-.022.034-.043.053-.065a5.943,5.943,0,0,0,.364-1.437c-.659-.834-2.194-2.59-3.579-2.821a19.981,19.981,0,0,1-.174,2.737,4.4,4.4,0,0,0,.572,1.881,15.481,15.481,0,0,1,1.829,1.348,5.146,5.146,0,0,1,.3-.7,16.453,16.453,0,0,0-1.618-3.223c-.391-.739-.348-.825-.348-.825C135.163,37.406,136.529,39.411,137.021,40.16Zm-3.7,3.134c.7,4.837,3.186,6.051,4.14,6.342a21.2,21.2,0,0,0-3.5-6.978s1.2.857,4.84,5.907c1.15-4.291-5.941-8.225-5.941-8.225-1.274-.927-1.158-.115-1.158-.115C132.223,40.573,133.324,43.295,133.324,43.295Zm.219,6.313a1.477,1.477,0,0,0,.489,2.87,1.494,1.494,0,0,0,.225-.019,1.475,1.475,0,0,0-.715-2.851ZM133.4,33.4a1.216,1.216,0,1,0-1.1.7A1.21,1.21,0,0,0,133.4,33.4Zm-8.363,36.773a4.645,4.645,0,0,0-.054-1.772,2.078,2.078,0,0,1-.626.477,2.265,2.265,0,0,1,.076,1.386C124.619,70.225,124.822,70.2,125.032,70.172ZM110.488,82.059c.213-.071.424-.144.631-.218a2,2,0,0,1,.076-.748A3.415,3.415,0,0,0,110.488,82.059Zm20.764-54.606a4.361,4.361,0,0,1-.488-.16v.788C130.809,27.758,131.252,27.452,131.252,27.452ZM132.6,46.481a8.3,8.3,0,0,0,1.509,1.277,11.756,11.756,0,0,1-.784-2.088,13.82,13.82,0,0,0-.938-2.723,3.036,3.036,0,0,0-1.843-.116s-.9-.043.492,1.651A21.818,21.818,0,0,1,132.6,46.481ZM87.329,76.307c-.348-1.043-.739-.217-.739-.217-.868,1.535-.2,3.785.159,4.746q.584.263,1.163.5c.038-.693.065-2.531-.671-3.162,0,0-.087-.868,1.13.7a8.955,8.955,0,0,1,1.485,3.2q.717.245,1.425.45a2.976,2.976,0,0,0-.607-2.255A28.682,28.682,0,0,1,87.329,76.307Zm-3.3-.521s.348-.044.652,1.3c0,0,.351,1.256,1.082,1.452-.02-.713.009-1.4.046-1.926a13.962,13.962,0,0,0-2.04-3c-1.347-1.39-.913.044-.913.044a3.379,3.379,0,0,1,.3,1.651,6,6,0,0,0-.408,3.432q1.02.611,2.026,1.135a9.876,9.876,0,0,0-.619-2.83A2.127,2.127,0,0,1,84.027,75.786Zm49.172-47c-.179-.231-.3-.373-.3-.373-.478-1-2.086-.087-2.086-.087a.339.339,0,0,1-.054-.14v1.043A3.3,3.3,0,0,1,133.2,28.781ZM89.327,10.616a4.59,4.59,0,0,0-1.737.4,6.947,6.947,0,0,0,3.649.038,13.48,13.48,0,0,1,2.129-1.39c1.347-.652-1.477-1.433-1.477-1.433A4.617,4.617,0,0,0,88.61,9.3l.109.011a6.577,6.577,0,0,1,2.52.131C90.935,10.53,89.327,10.616,89.327,10.616Zm27.281,64.655a3.456,3.456,0,0,1,.3-1.651s.426-1.433-.9-.043a13.955,13.955,0,0,0-2,3c.036.525.064,1.213.044,1.926.717-.2,1.061-1.452,1.061-1.452.3-1.347.64-1.3.64-1.3a2.161,2.161,0,0,1-.128,1.26,12.374,12.374,0,0,0-.639,3.128l-.62.351a33.838,33.838,0,0,0,3.163-1.715l-.583.322A6.765,6.765,0,0,0,116.609,75.271Zm2.685.739c.468-.739,0-.739,0-.739-.732-.029-1.388.719-1.75,1.23a2.217,2.217,0,0,0,.174.768,1.711,1.711,0,0,1,.257,1.226c.525-.336.937-.622,1.233-.837C118.869,77.179,119.294,76.01,119.294,76.01Zm-6.778.26a28.6,28.6,0,0,1-3.281,3.954,2.983,2.983,0,0,0-.569,2.395c.462-.127.91-.263,1.348-.4a8.687,8.687,0,0,1,1.48-3.381c1.194-1.564,1.108-.695,1.108-.695-.828.724-.671,3.048-.643,3.388q.517-.2,1-.407c.265-.65,1.246-3.322.279-5.066C113.241,76.053,112.857,75.227,112.516,76.27Zm-5.156,4.866c-1.236-1.26-1.151,2-1.151,2-.007.022-.014.043-.021.064q.864-.169,1.685-.373C107.848,81.52,107.36,81.136,107.36,81.136ZM69.121,27.842V27.41c-.114.041-.23.077-.344.106A1.777,1.777,0,0,1,69.121,27.842Zm-6.5,9.951a11.873,11.873,0,0,1,4.211-3.158,1.923,1.923,0,0,1-.857-.931c-1.467-.132-2.729,2.088-3.248,3.159a.874.874,0,0,1,.05.517A1.537,1.537,0,0,0,62.626,37.793ZM58.85,49.358a.5.5,0,0,0,.442.084c1.158-7.068,1.97-7.183,1.97-7.183a10.492,10.492,0,0,0-.523,4.455,9.276,9.276,0,0,1,2.484-4.172A1.388,1.388,0,0,0,63,41.68c-.912-.739-.782-3.041-.782-3.041.174-1.433-.434-.825-.434-.825C57.244,42.2,58.523,48.136,58.85,49.358Zm.24-13.152c-.584.034-1.221,1.776-1.463,2.506a13.259,13.259,0,0,1,1.321,1.962,9.906,9.906,0,0,1,1.4-2.3C60.083,36.092,59.089,36.206,59.089,36.206ZM69.121,24.581A4.378,4.378,0,0,0,68.1,26.952a4.142,4.142,0,0,0,1.024-.255ZM68.328,40.29s.116-.812-1.158.115c0,0-7.09,3.933-5.94,8.225,3.64-5.05,4.839-5.907,4.839-5.907a21.216,21.216,0,0,0-3.5,6.979c.954-.291,3.443-1.505,4.141-6.342C66.707,43.36,67.807,40.637,68.328,40.29Zm-.593-6.126a1.217,1.217,0,1,0-1.217-1.216A1.218,1.218,0,0,0,67.735,34.164Zm1.386-14.051A6.3,6.3,0,0,0,66.8,25.337a2.01,2.01,0,0,1,.2.094,14.1,14.1,0,0,1,2.125-2.353V20.113Zm-2.29,8.733a3.3,3.3,0,0,1,2.29.358v-.865c-.343-.173-1.584-.724-1.995.135C67.127,28.473,67.01,28.614,66.831,28.846ZM64.2,52.282a2.159,2.159,0,0,1-.371-1.139,6.573,6.573,0,0,0-2.1,1.775c-.174.7-.579.754-.579.754a20.824,20.824,0,0,1,.811-4.925c-.522,1.043-.927,2.144-.927,2.144-.7-.173-.579-4.345-.579-4.345a13.8,13.8,0,0,1-.811,4.866c-.406-.173-.985-1.159-.985-1.159,1.159,5.213.7,5.5.7,5.5a5.121,5.121,0,0,0-2.222-1.245c0,.038.006.077.006.115a2.155,2.155,0,0,1-.127.726A5.158,5.158,0,0,1,60.2,59.936c.149.139.3.287.44.448A10.212,10.212,0,0,1,61.8,57.658,5.058,5.058,0,0,1,62,54.151,3.891,3.891,0,0,1,64.2,52.282ZM74.783,68.306a4.81,4.81,0,0,0-.08,1.757c.138.015.274.036.407.062a2.969,2.969,0,0,1,.141-1.385A2.084,2.084,0,0,1,74.783,68.306ZM73.6,11.92a4.818,4.818,0,0,1-1.271,1.46H73.9C74.3,12.328,73.6,11.92,73.6,11.92Zm2.8,53.743a1.369,1.369,0,1,0,1.368,1.369A1.37,1.37,0,0,0,76.4,65.663ZM83.158,11.79c-1.607.043-.7-.521-.7-.521a3.557,3.557,0,0,0,1.651.043,9.771,9.771,0,0,1,1.674-.3,2.684,2.684,0,0,1,.974-.481c-.1-.062-.074-.047,0,0a8.533,8.533,0,0,1,2.39-.258c2.389-.521-3.433-.7-3.433-.7a3.119,3.119,0,0,1,1.532-.323,8.809,8.809,0,0,1,3.856-1.415c3.041.131,3.215,1.347,3.215,1.347l0,.014c.128-.014.253-.022.377-.027a2.155,2.155,0,0,0,1.539-1.116s.174-.348-.739-.348c0,0-.652-.391-1.173-.782,0,0-3.432-1.651-7.429,1.738,0,0-.347.044.608-.956a20.084,20.084,0,0,1,1.868-1.26s.782-.435.392-.869c0,0-.174-.478-1,.435a2.147,2.147,0,0,1-1.217.3A4.332,4.332,0,0,0,85.026,9.1s-.477.7-2.693,1.043c0,0-1,.521-1.738.956,0,0-.7.441-.6-.108a1.772,1.772,0,0,1-1.138.412c-.048,0-.1,0-.142-.007-.122.94-1.215,1.644-1.876,1.988h2.072c1.085-1.538,4.682-1.025,4.682-1.025C84.853,12.007,83.158,11.79,83.158,11.79ZM60.283,62.8a10.434,10.434,0,0,1,.143-1.444,6.124,6.124,0,0,0-.876-1.114h-.026l0-.029A5.008,5.008,0,0,0,56.859,58.8s-.551.086.058,1.158a15.9,15.9,0,0,1,1.275,4.866,4.36,4.36,0,0,0,1.044,2.3,9.452,9.452,0,0,1,2.064.558,11.2,11.2,0,0,1-.982-3.65c-.281-.761-.712-1.7-1.186-1.926,0,0,.036-.644,1.15.7ZM66,52.542a1.477,1.477,0,1,0-1.477-1.478A1.479,1.479,0,0,0,66,52.542Zm3.7-9.963c.039.256.079.51.122.763Q69.757,42.962,69.7,42.579ZM67.778,63.23a9.6,9.6,0,0,1,1.544-2.84,10.867,10.867,0,0,1-.631-2.5c.217-1.911-.13-1.433-.13-1.433-2.453,1.154-2.869,5.509-2.939,6.956.654.787,1.086,1.327,1.086,1.327.348-5.242,1.39-5.069,1.39-5.069C67.33,60.71,67.778,63.23,67.778,63.23Zm-.134-20.217a13.8,13.8,0,0,0-.937,2.722,11.755,11.755,0,0,1-.785,2.089,8.289,8.289,0,0,0,1.509-1.277,21.784,21.784,0,0,1,1.564-2c1.39-1.695.493-1.651.493-1.651A3.038,3.038,0,0,0,67.644,43.013Zm0,23.432c.087,2.694-.869,1.955-.869,1.955a6.783,6.783,0,0,0-1.521-4.432,7.692,7.692,0,0,1-2.52-4.779c-.217-2.085-.869-.348-.869-.348a11.327,11.327,0,0,0,.147,9.167,4.667,4.667,0,0,1,1.765,1.478c-1.434-2.39-1.434-6.343-1.434-6.343.261-1.3.782-.739.782-.739a4.847,4.847,0,0,0,.913,3.649,7.54,7.54,0,0,1,1.564,4.128c-.348.3-.348-.131-.348-.131-.869-2.737-1.651-3.215-1.651-3.215-.348,1.043.956,3.084.956,3.084.478,1.217-.434.609-.434.609-4.953-4.432-8.776-2.781-8.776-2.781a14.479,14.479,0,0,1,3.519,3.084,5.264,5.264,0,0,0,3.491,3.241l7.391-6.965.052-.024a5.4,5.4,0,0,1,1.938-.449,67.573,67.573,0,0,0-.055-7.707C68.821,60.145,67.648,66.444,67.648,66.444Zm-4.692,6.387A17.322,17.322,0,0,0,59.61,69.7s.652-1,3.649,2.216C63.26,71.919,63.39,72.657,62.956,72.831Zm7.951-10.818c-1.043,1.13-.7,4.3-.7,4.3,0,.87-.565.566-.565.566,0-1.521-.391-.782-.391-.782.087,1.26-.391,1.347-.391,1.347-.347-.044-.087-1.607-.087-1.607,1.173-4.3,2.129-4.345,2.129-4.345C71.515,60.927,70.906,62.013,70.906,62.013ZM56.439,54.627A1.477,1.477,0,1,0,54.962,56.1,1.479,1.479,0,0,0,56.439,54.627Zm75.553,26.72a3.355,3.355,0,0,1,.425.626,1.594,1.594,0,0,1,.805-.061s.659.391-.045.477a1.694,1.694,0,0,0-.606-.074c.023.06.045.12.064.184a3.292,3.292,0,0,1,.039,1.259,4.708,4.708,0,0,1,1.954-1.152c1.448-.26,1.228-.478,1.228-.478A5.418,5.418,0,0,0,131.992,81.347Zm-67.864.781s-.217.217,1.217.478a4.692,4.692,0,0,1,1.923,1.138,3.261,3.261,0,0,1,.04-1.245c.019-.064.041-.124.064-.184a1.666,1.666,0,0,0-.594.074c-.7-.086-.043-.477-.043-.477a1.572,1.572,0,0,1,.793.06,3.354,3.354,0,0,1,.424-.624A5.314,5.314,0,0,0,64.129,82.128ZM56.983,66.964q.681-.007,1.281.04c-.369-.4-1.654-1.845-1.58-2.616,0,0,.2-.174.869.609a16.647,16.647,0,0,0-.335-2.614c-1.029.3-2.388-.76-2.388-.76-.739-.608-.7,0-.7,0A8.9,8.9,0,0,0,56.983,66.964ZM78.857,10.7a1.086,1.086,0,1,0-1.086-1.087A1.088,1.088,0,0,0,78.857,10.7ZM135.9,70.464s-.912.608-.435-.608c0,0,1.3-2.042.956-3.084,0,0-.782.478-1.651,3.215,0,0,0,.435-.348.13a7.54,7.54,0,0,1,1.564-4.127,4.846,4.846,0,0,0,.912-3.649s.522-.565.782.738c0,0,0,3.954-1.434,6.343a4.668,4.668,0,0,1,1.765-1.477,11.326,11.326,0,0,0,.147-9.167s-.652-1.738-.869.348a7.691,7.691,0,0,1-2.52,4.779,6.784,6.784,0,0,0-1.521,4.432s-.956.739-.869-1.955c0,0-1.173-6.3-4.04-7.516a64.543,64.543,0,0,0-.039,7.807,4.428,4.428,0,0,1,3.016,1.433l6.238,5.941a5.328,5.328,0,0,0,3.6-3.278,14.487,14.487,0,0,1,3.519-3.084S140.854,66.032,135.9,70.464Zm-4.735-3.085s-.478-.087-.391-1.347c0,0-.391-.739-.391.782,0,0-.565.3-.565-.565,0,0,.347-3.172-.7-4.3,0,0-.608-1.086,0-.521,0,0,.956.043,2.129,4.344C131.252,65.771,131.513,67.336,131.166,67.379Zm5.909,5.387c-.435-.174-.3-.912-.3-.912,3-3.215,3.649-2.216,3.649-2.216A17.338,17.338,0,0,0,137.074,72.766Zm7.675-19.616c-.046,0-.09,0-.135.007a1.477,1.477,0,0,0,.454,2.882c.046,0,.09,0,.135-.007a1.477,1.477,0,0,0-.454-2.882Zm2.317-8.407a6.237,6.237,0,0,0-2.1.04,9.508,9.508,0,0,1-3.077,4.977c.018.318.03.668.032,1.035,1.734.019,3.059-2.185,3.059-2.185a25.407,25.407,0,0,1,1.607-2.824C147.936,45.048,147.067,44.743,147.067,44.743ZM145.2,61.557s-1.358,1.062-2.388.76a16.628,16.628,0,0,0-.334,2.616c.665-.783.869-.608.869-.608.075.769-1.208,2.214-1.578,2.614q.6-.046,1.279-.04a8.9,8.9,0,0,0,2.847-5.341S145.937,60.949,145.2,61.557Zm-80.94.239c.313.364.612.716.888,1.044a9.378,9.378,0,0,1,.629-3.639,4.28,4.28,0,0,0-.865-2.359c-.739-1.26-.739-.435-.739-.435a18.667,18.667,0,0,1-.624,4.056A8.186,8.186,0,0,0,64.259,61.8Zm4.863-45.071a4.049,4.049,0,0,0-.557.731,4.669,4.669,0,0,1,.557,1.068ZM58.107,50.86c0-.367.014-.717.032-1.034a9.511,9.511,0,0,1-3.077-4.977,6.238,6.238,0,0,0-2.1-.04s-.869.3.478,1.043a25.306,25.306,0,0,1,1.608,2.824S56.373,50.881,58.107,50.86Zm4.631-27.645a9.04,9.04,0,0,1,.738,2.259s.213,1.254,1.228,1.388a2.91,2.91,0,0,0-1.054-2.692,10.5,10.5,0,0,1,.985.564,13.4,13.4,0,0,1-.1-1.852,2.639,2.639,0,0,0-2.23-.623S61.479,22.477,62.739,23.216Zm.217,16.944c.019.022.035.043.053.065.492-.749,1.858-2.754,2.6-3.106,0,0,.043.087-.348.825a16.443,16.443,0,0,0-1.618,3.224,5.144,5.144,0,0,1,.3.7,15.478,15.478,0,0,1,1.828-1.348,4.4,4.4,0,0,0,.572-1.882,19.981,19.981,0,0,1-.174-2.737c-1.385.231-2.92,1.988-3.579,2.821A5.931,5.931,0,0,0,62.956,40.16Zm2.65-14.772a.974.974,0,0,1,.516-.177,6.917,6.917,0,0,1,2.624-5.929,2.871,2.871,0,0,0-1.185-1.845s-.391-.39-.825.7a13.01,13.01,0,0,1-1.13,2.476,7.149,7.149,0,0,0-.413,4.492Q65.389,25.234,65.606,25.388Zm-4,6.169s1.318,2.186-1.1,5.15a10.032,10.032,0,0,1,.38,1.1,7.115,7.115,0,0,1,1.023-.841c1.683-3.237,3.246-3.876,3.917-3.993l0-.021a1.9,1.9,0,0,1,.116-.65,1.383,1.383,0,0,0-1.594.65s-.652.174.435-1.781c0,0,1.911-3.345,2.52-4.084,0,0,.13-.391-.7-.3,0,0-.478.174-.347-.7,0,0-.435-.26-.565.174A36.337,36.337,0,0,1,63,31.34s-.608.435-.825-.565c0,0-.261-.956-.956-.174a.745.745,0,0,0,.391.956Zm-3.54,17.124a17.28,17.28,0,0,1-.188-3.139,4.5,4.5,0,0,1-.616-1.906,5.711,5.711,0,0,0-.478-2.259A7.832,7.832,0,0,1,58,44.075a12.988,12.988,0,0,1,.522-2.3A10.379,10.379,0,0,0,56,38.291c-1-1-.825-.261-.825-.261.782.869-.044,3.607-.044,3.607A8.5,8.5,0,0,0,58.069,48.681ZM56.656,35.12a5.842,5.842,0,0,0-.2,2.4,7.687,7.687,0,0,1,.7.652,24.364,24.364,0,0,1,1.155-2.229,2.353,2.353,0,0,1,.364-.445,3.579,3.579,0,0,0-1.233-3.683c-1.564-1.086-.869.043-.869.043C57.568,33.078,56.656,35.12,56.656,35.12Zm3.229-3.808a1.425,1.425,0,0,0,.79-.242,1.12,1.12,0,0,1,.6-1.553,1.433,1.433,0,1,0-1.386,1.8ZM85.07,12.267l-.255.045a.826.826,0,0,1-.648.616l-.053.295.032.157H86l.027-.157A.957.957,0,0,0,85.07,12.267ZM70.036,67.8l-1.618,1.525Zm.106-.1-.1.1Zm10.279,7.611s-.478,0,0,.739a3.339,3.339,0,0,1,.2,1.331q.573.39,1.142.753a1.5,1.5,0,0,1,.263-.825,2.195,2.195,0,0,0,.177-.768C81.836,76.027,81.168,75.279,80.421,75.308Zm12.165,5.865s-.463.361-.517,1.562q.853.226,1.69.4C93.764,82.78,93.766,79.992,92.586,81.173ZM113.16,11.931l-.008.028-.277-.039a1,1,0,0,0-.884,1.46h1.769a1,1,0,0,0,.114-.461l-.012-.16.042-.006a1.869,1.869,0,0,1-.744-.822Zm-19.6.484a8.3,8.3,0,0,1-3.071-.266,3.985,3.985,0,0,1-2.472-.062A15.019,15.019,0,0,0,89.9,13.38h4.43A1.6,1.6,0,0,0,93.559,12.415ZM88.675,81.129a2.338,2.338,0,0,1,.092.545q.248.094.5.183A2.816,2.816,0,0,0,88.675,81.129Zm25.845-1.9c-.079.16-.332.173-.517.159a7.4,7.4,0,0,1-.252,1.391c.166-.075.326-.15.486-.225A1.959,1.959,0,0,0,114.52,79.224Zm-29.233.037a2.229,2.229,0,0,0,.074.914q.311.156.62.3a8.043,8.043,0,0,1-.168-1.06C85.625,79.433,85.367,79.42,85.287,79.261ZM123.3,11.268s-.608-.174-.782-.565c0,0-.608.086.043,1.477a5.928,5.928,0,0,1,.269,1.2h1.439a5.2,5.2,0,0,0-1.143-1.243s.432-.43,1.892,1.243h1.255A6.332,6.332,0,0,0,123.3,11.268ZM93.855,9.781a6.722,6.722,0,0,0-1.877,1.487,4.469,4.469,0,0,1-.552.431,4.079,4.079,0,0,0,2.2.177,10,10,0,0,1,4.214-.652C96.91,9.6,94.716,9.68,93.855,9.781Zm36.088,58.105a4.089,4.089,0,0,0-.388-.215A4.089,4.089,0,0,1,129.943,67.886ZM115.3,8.413a2.394,2.394,0,0,1,1.39-.141l.115-.149a1.044,1.044,0,1,0-1.5.291Zm3.919,3.594s-2.346-1.217-2.476-2.694c0,0-1-.521-1.086.261,0,0,.131,1.26-1,.174a5.574,5.574,0,0,0-1.695-.826,4.815,4.815,0,0,1-2.694-1.955,5.746,5.746,0,0,0-3.258-1.737,5.379,5.379,0,0,1-2.346-1s-.956-.13-.087,1.13a2.227,2.227,0,0,0,.609.457c.884.105,4.234.652,5.473,3.019,0,0,0,.02,0,.051a2.231,2.231,0,0,1,.261.862,4.154,4.154,0,0,0-2.2.519c1.557-.156,1.332.393,1.332.393-1.825.044-3.649,2.129-3.649,2.129-.507-.864.356-1.667.948-2.086a9.408,9.408,0,0,1-6.822-1.912c-1.64-.087-1.252.393-1.252.393a3.156,3.156,0,0,1,1.347.608,5.482,5.482,0,0,0,4.04,2.042c1.434-.087,1,.174,1,.174a3.951,3.951,0,0,0-.97,1.373h2.44c.757-.448,3-1.821,3.57-2.72,0,0,1.911-1.129,3.3.217a1.272,1.272,0,0,0,1.477,1.043s2.344-.155,2.993,1.46h2.7a7.468,7.468,0,0,0-1.959-1.373ZM100.71,8.1s4.772,3.889,8.647.953a6.068,6.068,0,0,0-4.65-.345s-.039-1.5,4.185-.74c-.7-.785-2.5-2.085-6.313-1.171a5.732,5.732,0,0,1-3.171-.087S98.625,7.01,100.71,8.1Zm11.233-.29-.221-.221c.022.04.045.079.067.12C111.789,7.706,111.845,7.745,111.943,7.806Zm-9-1.706a5.531,5.531,0,0,1,1.433-.348,2.3,2.3,0,0,1-.489-.88,3.6,3.6,0,0,1-1.614-.12c-.565-.826-.478-.174-.478-.174A1.682,1.682,0,0,0,102.944,6.1Zm21.863,60.931a1.368,1.368,0,1,0-1.369,1.369A1.37,1.37,0,0,0,124.807,67.031Zm4.727.63a3.329,3.329,0,0,0-.44-.174A3.377,3.377,0,0,1,129.535,67.661Z"/></svg>