<svg id="Layer_1" data-name="Layer 1" xmlns="http://www.w3.org/2000/svg" viewBox="0 0 200 100"><defs><style>.cls-1{fill:#6772e5;}</style></defs><title>_00_ landing page</title><g id="Stripe"><path class="cls-1" d="M164.549,50.7c0-9.1-4.41-16.288-12.839-16.288-8.464,0-13.585,7.184-13.585,16.217,0,10.7,6.046,16.11,14.723,16.11A19.83,19.83,0,0,0,162.7,64.43V57.317a18.885,18.885,0,0,1-8.713,1.956c-3.45,0-6.508-1.209-6.9-5.406h17.391C164.478,53.405,164.549,51.556,164.549,50.7Zm-17.569-3.379c0-4.019,2.454-5.69,4.694-5.69,2.169,0,4.481,1.671,4.481,5.69Z"/><path class="cls-1" d="M124.4,34.414a10.047,10.047,0,0,0-6.971,2.774l-.462-2.2h-7.824V76.451l8.891-1.885.036-10.065a10.015,10.015,0,0,0,6.295,2.241c6.366,0,12.163-5.121,12.163-16.395C136.489,40.033,130.621,34.414,124.4,34.414Zm-2.134,24.5a5.316,5.316,0,0,1-4.2-1.671l-.036-13.194a5.293,5.293,0,0,1,4.232-1.743c3.236,0,5.477,3.628,5.477,8.286C127.741,55.361,125.536,58.918,122.264,58.918Z"/><polygon class="cls-1" points="96.907 32.316 105.833 30.396 105.833 23.176 96.907 25.061 96.907 32.316"/><rect class="cls-1" x="96.907" y="35.019" width="8.927" height="31.118"/><path class="cls-1" d="M87.34,37.651l-.569-2.632H79.089V66.137H87.98V45.048c2.1-2.738,5.655-2.241,6.757-1.849v-8.18C93.6,34.592,89.438,33.81,87.34,37.651Z"/><path class="cls-1" d="M69.558,27.3l-8.678,1.849-.036,28.487a8.936,8.936,0,0,0,9.211,9.14A13.736,13.736,0,0,0,76.28,65.6V58.384c-1.138.462-6.757,2.1-6.757-3.165V42.594H76.28V35.019H69.523Z"/><path class="cls-1" d="M45.517,44.052c0-1.387,1.138-1.92,3.023-1.92a19.836,19.836,0,0,1,8.82,2.276V36.05a23.453,23.453,0,0,0-8.82-1.636c-7.219,0-12.021,3.77-12.021,10.065,0,9.816,13.514,8.251,13.514,12.483,0,1.636-1.423,2.169-3.414,2.169a22.136,22.136,0,0,1-9.709-2.845V64.75a24.653,24.653,0,0,0,9.709,2.027c7.4,0,12.483-3.663,12.483-10.029C59.067,46.15,45.517,48.035,45.517,44.052Z"/></g></svg>